<?xml version="1.0" encoding="utf-8"?>
<!-- Generator: Adobe Illustrator 26.0.0, SVG Export Plug-In . SVG Version: 6.00 Build 0)  -->
<svg version="1.1" id="Слой_1" xmlns="http://www.w3.org/2000/svg" xmlns:xlink="http://www.w3.org/1999/xlink" x="0px" y="0px"
	 viewBox="0 0 1557.59 1057.09" style="enable-background:new 0 0 1557.59 1057.09;" xml:space="preserve">
<style type="text/css">
	.st0{fill:#E7F3FB;}
	.st1{fill:#1B3251;}
	.st2{fill:#FFFFFD;}
	.st3{fill:#D0E7F4;}
	.st4{fill:#FFFFFF;}
	.st5{fill:#58B884;}
	.st6{fill:#80D3A2;}
	.st7{fill:#3BBAB8;}
	.st8{fill:none;stroke:#125467;stroke-width:2;stroke-miterlimit:10;}
	.st9{fill:#125467;}
	.st10{fill:#78DBFF;}
	.st11{fill:#9EA6AC;}
	.st12{fill:#F4F8F9;}
	.st13{fill:#EDF6F7;}
	.st14{fill:#92E0FF;}
	.st15{fill:none;stroke:#FFFFFF;stroke-width:2.0605;stroke-linecap:round;stroke-miterlimit:10;}
	.st16{fill:none;stroke:#FFFFFF;stroke-width:1.8252;stroke-linecap:round;stroke-miterlimit:10;}
	.st17{fill:none;stroke:#FFFFFF;stroke-width:1.945;stroke-linecap:round;stroke-miterlimit:10;}
	.st18{fill:none;stroke:#FFFFFF;stroke-width:2.2614;stroke-linecap:round;stroke-miterlimit:10;}
	.st19{fill:none;stroke:#FFFFFF;stroke-width:2.1095;stroke-linecap:round;stroke-miterlimit:10;}
	.st20{fill:none;stroke:#FFFFFF;stroke-width:2.1382;stroke-miterlimit:10;}
	.st21{fill:#5FD5FF;}
	.st22{fill:#9FE6FF;}
	.st23{fill:none;stroke:#FFFFFF;stroke-width:2.6602;stroke-linecap:round;stroke-miterlimit:10;}
	.st24{fill:none;stroke:#FFFFFF;stroke-width:2.6602;stroke-miterlimit:10;}
	.st25{fill:none;stroke:#FFFFFF;stroke-width:2.9232;stroke-linecap:round;stroke-miterlimit:10;}
	.st26{fill:#1A3051;}
	.st27{fill:#3CB9BA;}
	.st28{fill:#1A3150;}
	.st29{fill:#3E537F;}
	.st30{fill:#8B4FC4;}
	.st31{fill:#1A3050;}
	.st32{font-family:'Adigiana2';}
	.st33{font-size:38.5233px;}
	.st34{font-size:38.5221px;}
	.st35{fill:#9FE7FE;}
	.st36{enable-background:new    ;}
	.st37{fill:#122437;}
	.st38{fill:#152742;}
	.st39{fill:none;stroke:#FFFFFF;stroke-width:1.9166;stroke-linecap:round;stroke-miterlimit:10;}
	.st40{fill:none;stroke:#FFFFFF;stroke-width:1.7499;stroke-miterlimit:10;}
	.st41{fill:none;stroke:#FFFFFF;stroke-width:1.9356;stroke-linecap:round;stroke-miterlimit:10;}
	.st42{fill:none;stroke:#FFFFFF;stroke-width:2.0268;stroke-linecap:round;stroke-miterlimit:10;}
	.st43{fill:none;stroke:#FFFFFF;stroke-width:2.3401;stroke-linecap:round;stroke-miterlimit:10;}
	.st44{fill:none;stroke:#1B3251;stroke-width:2.5125;stroke-linecap:round;stroke-miterlimit:10;}
	.st45{fill:none;stroke:#1B3251;stroke-width:2.6373;stroke-linecap:round;stroke-miterlimit:10;}
	.st46{fill:none;stroke:#FFFFFF;stroke-width:1.643;stroke-linecap:round;stroke-miterlimit:10;}
	.st47{fill:none;stroke:#FFFFFF;stroke-width:1.9306;stroke-miterlimit:10;}
	.st48{fill:#1B3052;}
	.st49{fill:#F7B492;}
	.st50{fill:none;stroke:#152742;stroke-width:3.7267;stroke-miterlimit:10;}
	.st51{fill:none;stroke:#152742;stroke-width:2.4061;stroke-miterlimit:10;}
	.st52{fill:#1A3052;}
	.st53{fill:#F2A17E;}
	.st54{fill:none;stroke:#1B3251;stroke-width:2.9716;stroke-linecap:round;stroke-miterlimit:10;}
	.st55{fill:none;stroke:#1B3251;stroke-width:3.343;stroke-miterlimit:10;}
	.st56{fill:#61D5FF;}
	.st57{fill:#E2A98D;}
	.st58{fill:#2E4466;}
	.st59{opacity:0.59;}
	.st60{fill:#EEBEA3;}
</style>
<g>
	<g>
		<g>
			<g>
				<circle class="st0" cx="176.55" cy="129.66" r="5.64"/>
				<circle class="st0" cx="205.52" cy="129.66" r="5.64"/>
				<circle class="st0" cx="235.18" cy="129.66" r="5.64"/>
				<g>
					<circle class="st0" cx="176.55" cy="155.42" r="5.64"/>
					<circle class="st0" cx="205.52" cy="155.42" r="5.64"/>
					<circle class="st0" cx="235.18" cy="155.42" r="5.64"/>
				</g>
				<g>
					<circle class="st0" cx="176.21" cy="180.04" r="5.64"/>
					<circle class="st0" cx="205.19" cy="180.04" r="5.64"/>
					<circle class="st0" cx="234.84" cy="180.04" r="5.64"/>
				</g>
			</g>
			<g>
				
					<ellipse transform="matrix(0.1602 -0.9871 0.9871 0.1602 -51.1972 200.2939)" class="st0" cx="92.11" cy="130.23" rx="5.64" ry="5.64"/>
				<circle class="st0" cx="121.09" cy="130.23" r="5.64"/>
				<circle class="st0" cx="150.75" cy="130.23" r="5.64"/>
				<g>
					
						<ellipse transform="matrix(0.1602 -0.9871 0.9871 0.1602 -76.6147 221.9192)" class="st0" cx="92.11" cy="155.98" rx="5.64" ry="5.64"/>
					<circle class="st0" cx="121.09" cy="155.98" r="5.64"/>
					<circle class="st0" cx="150.75" cy="155.98" r="5.64"/>
				</g>
				<g>
					
						<ellipse transform="matrix(0.1602 -0.9871 0.9871 0.1602 -101.2122 242.2683)" class="st0" cx="91.77" cy="180.61" rx="5.64" ry="5.64"/>
					<circle class="st0" cx="120.75" cy="180.61" r="5.64"/>
					<circle class="st0" cx="150.41" cy="180.61" r="5.64"/>
				</g>
			</g>
		</g>
		<g>
			<g>
				<circle class="st0" cx="176.55" cy="206.43" r="5.64"/>
				<circle class="st0" cx="205.52" cy="206.43" r="5.64"/>
				<circle class="st0" cx="235.18" cy="206.43" r="5.64"/>
				<g>
					<circle class="st0" cx="176.55" cy="232.18" r="5.64"/>
					<circle class="st0" cx="205.52" cy="232.18" r="5.64"/>
					<circle class="st0" cx="235.18" cy="232.18" r="5.64"/>
				</g>
				<g>
					<circle class="st0" cx="176.21" cy="256.81" r="5.64"/>
					<circle class="st0" cx="205.19" cy="256.81" r="5.64"/>
					<circle class="st0" cx="234.84" cy="256.81" r="5.64"/>
				</g>
			</g>
			<g>
				
					<ellipse transform="matrix(0.1602 -0.9871 0.9871 0.1602 -126.966 264.7583)" class="st0" cx="92.11" cy="206.99" rx="5.64" ry="5.64"/>
				<circle class="st0" cx="121.09" cy="206.99" r="5.64"/>
				<circle class="st0" cx="150.75" cy="206.99" r="5.64"/>
				<g>
					<circle class="st0" cx="92.11" cy="232.75" r="5.64"/>
					<circle class="st0" cx="121.09" cy="232.75" r="5.64"/>
					<circle class="st0" cx="150.75" cy="232.75" r="5.64"/>
				</g>
				<g>
					<circle class="st0" cx="91.77" cy="257.37" r="5.64"/>
					<circle class="st0" cx="120.75" cy="257.37" r="5.64"/>
					<circle class="st0" cx="150.41" cy="257.37" r="5.64"/>
				</g>
			</g>
		</g>
		<g>
			<circle class="st0" cx="5.98" cy="207.56" r="5.64"/>
			<circle class="st0" cx="34.96" cy="207.56" r="5.64"/>
			<circle class="st0" cx="64.62" cy="207.56" r="5.64"/>
			<g>
				<circle class="st0" cx="5.98" cy="233.31" r="5.64"/>
				<circle class="st0" cx="34.96" cy="233.31" r="5.64"/>
				<circle class="st0" cx="64.62" cy="233.31" r="5.64"/>
			</g>
			<g>
				<circle class="st0" cx="5.64" cy="257.94" r="5.64"/>
				<circle class="st0" cx="34.62" cy="257.94" r="5.64"/>
				<circle class="st0" cx="64.28" cy="257.94" r="5.64"/>
			</g>
		</g>
	</g>
	<path class="st0" d="M863.12,61.35c-8.49,8.66-18.46,21.78-20.43,38.81c-3.02,26.11,12.36,65.03,141.96,144
		c109.91,66.97,210.48,126.64,356.43,136.85c68.24,4.77,131.54,9.2,159.32-29.62c33.76-47.16,1.46-139.13-50.04-189.96
		c-3.75-3.7-20.9-20.31-53.11-36.77c-115.86-59.21-180.06,9.45-293.11-40.85c-26.48-11.78-62.89-33.32-120.51-46.98
		c-19.01-4.51-42.06-8.57-69.19-1.79C890.51,41.03,873.24,52.99,863.12,61.35z"/>
	<g>
		<path class="st0" d="M68.04,515.96c3.95-12.34,9.45-28.2,16.86-46.29c0,0,12.32-30.09,28.33-59.86
			c116.96-217.5,242.22-277.75,242.22-277.75c205.21-98.71,422.99,42.42,435.15,52.65c39.93,33.57,74.55,73.43,113.19,108.59
			c133.39,121.37,308.71,181.25,483.16,212.96c47.65,8.66,101.84,19.59,126.84,62.75c9.31,16.08,13.24,34.93,15.28,53.59
			c7.32,66.72-7.81,134.55-34.01,195.91c-19.65,46.04-46.28,90.05-84.34,121.12c-65.6,53.55-155.98,61.46-238.54,49.69
			s-162.15-40.76-244.64-53.02c-153.5-22.81-309.01,13.13-464.06,15c-48.61,0.59-98.09-2.35-143.82-19.52
			c-43.79-16.44-82.28-45.23-118.17-76.11c-34.48-29.67-52.42-59.34-79.64-99.78c-26.44-39.28-41.05-61.37-51.52-95.45
			c-12.17-39.62-12.41-74.88-10.72-98.17C62.42,546.82,65.23,531.39,68.04,515.96z"/>
	</g>
	<g>
		<path class="st1" d="M987.19,142.14l-180.21,72.64c-7.99,3.22-17.07-0.65-20.29-8.63L741.51,94.06
			c-3.22-7.99,0.65-17.07,8.63-20.29L930.35,1.13c7.99-3.22,17.07,0.65,20.29,8.63l45.18,112.09
			C999.04,129.84,995.17,138.92,987.19,142.14z"/>
		<path class="st2" d="M942.97,15.25l43.22,107.22c2,4.95-0.4,10.59-5.35,12.59l-174.2,70.22c-4.95,2-10.59-0.4-12.59-5.35
			L750.83,92.7c-2-4.96,0.4-10.59,5.35-12.59L930.39,9.9C935.34,7.9,940.97,10.29,942.97,15.25z"/>
		<path class="st1" d="M878.83,185.82c1.26,10.48,2.52,20.96,3.79,31.44l54.2-21.85l-19.25-25.21
			C904.66,175.41,891.75,180.61,878.83,185.82z"/>
		<path class="st1" d="M985.96,117.44l1.94,4.81c2.18,5.4-0.16,11.44-5.2,13.47l-177.65,71.61c-5.05,2.03-10.92-0.7-13.09-6.1
			l-1.94-4.81L985.96,117.44z"/>
		<g>
			<path class="st2" d="M896.89,165.37c0.98,2.27,0,5.31-2.48,6.48c-1.2,0.58-2.67,0.69-3.99,0.21s-2.42-1.56-2.96-2.88
				c-0.53-1.32-0.49-2.87,0.13-4.13c0.61-1.27,1.75-2.21,3.02-2.62C893.21,161.54,896.02,163.06,896.89,165.37z M896.89,165.37
				c-0.47-1.15-1.42-2.08-2.57-2.48c-1.15-0.41-2.41-0.3-3.44,0.21c-2.11,1.03-2.89,3.61-2.07,5.53c0.74,1.95,3.09,3.27,5.33,2.55
				c1.09-0.34,2.08-1.14,2.62-2.23C897.31,167.85,897.35,166.52,896.89,165.37z"/>
		</g>
		<path class="st1" d="M938.35,197.21l-55.24,22.27c-1.58,0.64-3.39-0.13-4.02-1.71l0,0c-0.64-1.58,0.13-3.39,1.71-4.02l55.24-22.27
			c1.58-0.64,3.39,0.13,4.02,1.71l0,0C940.7,194.77,939.93,196.58,938.35,197.21z"/>
	</g>
	<g>
		<g>
			<path class="st3" d="M407.29,241.66c-49.04-29.47-73.29-63-85.05-83.09c-18.79-32.1-15.01-45.8-12.43-51.69
				c5.31-12.11,19.32-22.58,34.68-22.9c11.68-0.24,20.19,5.46,23.64,7.83c14.71,10.14,19.93,26.09,22.72,35.06
				c13.79,44.32,23.54,95.5,26.26,110.2C413.83,238.61,410.56,240.14,407.29,241.66z"/>
		</g>
		<g>
			<g>
				<path class="st4" d="M345.9,114.28c5.43,16.05,11.65,31.82,18.56,47.29c6.88,15.39,14.47,30.45,22.74,45.14
					c4.65,8.26,9.48,16.43,14.59,24.41c0.48,0.75,1.56-0.1,1.1-0.85c-8.95-14.32-17.37-28.93-25.04-43.97
					c-7.62-14.94-14.57-30.23-20.8-45.8c-3.53-8.81-6.81-17.72-9.9-26.69C346.86,112.99,345.62,113.47,345.9,114.28L345.9,114.28z"
					/>
			</g>
		</g>
	</g>
	<g>
		<g>
			<path class="st5" d="M421.06,207.37c8.56,2.13,22.76-32.35,28.15-45.46c5.65-13.73,7.38-20.8,7.95-28.31
				c0.52-6.75,1.49-19.57-6.11-25.42c-0.7-0.54-3.88-2.86-8.24-2.9c-5.86-0.04-10.08,4.08-11.94,5.9
				c-8.17,7.99-10.99,22.87-13.45,43.54c-4.66,39.12-2.19,49.67,2.84,52.31C420.71,207.29,420.98,207.36,421.06,207.37z"/>
		</g>
	</g>
	<g>
		<path class="st6" d="M1019.25,1000.75c0,0-9.88,3.28-21.45,2.04c-12.62-1.35-35.34-5.28-64.14-12.27c0,0-49-12.16-79.72-50.72
			c-4.89-6.14-6.79-11.59-6.91-16.75c-0.22-9.43,5.79-16.06,6.68-17.02c1.96-2.12,8.44-8.34,25.8-8.9
			c31.34-1.01,67.89,17.43,79.27,23.46c0,0,24.47,14.56,47.36,38.11c8.61,8.86,17.71,19.74,17.71,19.74
			c5.47,6.54,9.92,12.3,13.26,16.79C1032.83,997.02,1026.75,999.19,1019.25,1000.75z"/>
	</g>
	<g>
		<path class="st7" d="M958.69,861.75c3.06-9.33,3.3-17.08,3.06-21.96c-0.35-7.33-0.94-19.42-8.55-23.36
			c-0.29-0.15-4.91-2.46-8.93-0.48c-7.56,3.71-5.71,18.93-5.62,19.63C940.68,850.99,955.28,859.8,958.69,861.75z"/>
		<path class="st7" d="M931.56,872.83c-0.23,0.48-0.81,1.95,0.43,5.27c3.03,8.1,11.87,13.65,20.52,15.61
			c1.98,0.45,14.44,3.27,16.85-1.19c2.84-5.25-8.5-20.12-22.3-22.81C942.06,868.73,933.5,868.75,931.56,872.83z"/>
		<path class="st7" d="M988.9,926.76c-1.04-0.36-1.64-3.28-2.79-9.1c-1.13-5.72-2.82-16.13-0.59-25.19c0.37-1.5,1-3.58,2.8-5.25
			c2.28-2.1,5.1-2.35,5.78-2.41c5.23-0.45,10.71,3.62,12.87,7.55C1013.76,904.73,994.61,928.73,988.9,926.76z"/>
		<path class="st7" d="M1005.31,954.4c-7.47-6.26-18.34-12.81-31.16-12.57c-3.18,0.06-10.38,0.19-11.91,3.83
			c-1.7,4.04,4.3,10.7,9.78,13.91c10.48,6.15,22.32,1.54,23.99,0.87C1000.37,958.66,1003.45,956.16,1005.31,954.4z"/>
		<path class="st7" d="M1025.14,980.17c-3.29-6.13-9.29-19.47-5.19-32.58c0.9-2.89,2.42-7.5,6.37-9.01
			c4.51-1.71,10.35,1.31,13.24,5.18c5.86,7.84,1.08,21.1-4.96,28.58C1031.34,976.37,1027.66,978.79,1025.14,980.17z"/>
		<path class="st8" d="M1041.54,998.22c-20.8-21.58-47.46-54.39-68.6-99.57c-12.57-26.88-20.27-51.9-25.12-72.94"/>
		<path class="st8" d="M988.32,927.83c2.69-7.58,5.15-16.08,7.01-25.44c0.6-3.02,1.11-5.98,1.53-8.85"/>
		<path class="st8" d="M976.64,951.44c2.61,0.75,5.45,1.43,8.51,1.98c7.49,1.35,14.24,1.54,19.86,1.25"/>
		<path class="st8" d="M942.18,877.94c3.82,2.16,8.38,4.41,13.65,6.43c4.59,1.76,8.89,3.02,12.72,3.93"/>
		<path class="st8" d="M1024.6,979.87c2.95-6.46,5.64-14.57,6.58-24.1c0.18-1.81,0.28-3.57,0.32-5.26"/>
	</g>
	<g>
		<path class="st9" d="M367.52,242.24c-45.24,7.83-75.73-1.24-91.6-7.85c-23.55-9.8-26.22-18.89-26.82-22.25
			c-2.05-11.36,7.34-24.13,18.32-28.79c7.51-3.19,17.2-3.18,38.6,7.2c15.72,7.62,39.17,21.52,63.46,47.11
			C368.83,239.18,368.18,240.71,367.52,242.24z"/>
	</g>
	<g>
		<path class="st3" d="M1261.61,324.24v417.71c0,16.36-13.24,29.61-29.6,29.61H462.38c-10.54,0-19.79-5.5-25.03-13.8
			c-2.91-4.57-4.58-10-4.58-15.82v-417.7c0-16.36,13.26-29.6,29.61-29.6h769.64C1248.37,294.64,1261.61,307.88,1261.61,324.24z"/>
		<path class="st10" d="M1120.4,228.38v409.59c0,16.04-12.89,29.04-28.82,29.04H342.19c-10.27,0-19.27-5.4-24.37-13.53
			c-2.83-4.48-4.46-9.81-4.46-15.51V228.38c0-16.04,12.91-29.02,28.84-29.02h749.39C1107.51,199.36,1120.4,212.34,1120.4,228.38z"/>
		<path class="st11" d="M976.64,413.86v152.82c0,5.98-4.84,10.83-10.83,10.83H684.25c-3.17,0-6.02-1.36-7.99-3.53
			c-0.43-0.47-0.82-0.98-1.17-1.52c-1.06-1.67-1.68-3.66-1.68-5.79V413.86c0-5.98,4.85-10.83,10.83-10.83h281.57
			c3.08,0,5.86,1.28,7.82,3.35C975.5,408.32,976.64,410.96,976.64,413.86z"/>
		<g>
			<g>
				<path class="st4" d="M1178.4,296.94c0,7.78,0,15.56,0,23.34c0,20.05,0,40.1,0,60.15c0,27.38,0,54.76,0,82.13
					c0,29.77,0,59.54,0,89.3c0,27.11,0,54.21,0,81.32c0,19.78,0,39.55,0,59.33c0,8.47,0.97,17.63-0.26,26.06
					c-1.99,13.64-13.9,23.13-27.43,23.22c-2,0.01-4,0-5.99,0c-10.07,0-20.13,0-30.2,0c-16.94,0-33.88,0-50.81,0
					c-22.35,0-44.71,0-67.06,0c-26.19,0-52.38,0-78.57,0c-28.82,0-57.63,0-86.45,0c-29.87,0-59.75,0-89.62,0
					c-29.48,0-58.96,0-88.44,0c-27.63,0-55.26,0-82.89,0c-24.32,0-48.65,0-72.97,0c-19.56,0-39.13,0-58.69,0
					c-13.35,0-26.7,0-40.05,0c-5.67,0-11.35,0.07-17.02,0c-15.11-0.19-27.23-11.96-27.47-27.15c-0.03-2.17,0-4.35,0-6.53
					c0-14.73,0-29.46,0-44.19c0-24.45,0-48.9,0-73.35c0-29.23,0-58.46,0-87.69c0-29.07,0-58.14,0-87.21c0-23.97,0-47.94,0-71.91
					c0-13.93,0-27.87,0-41.8c0-3.74-0.17-7.51,0.69-11.17c2.97-12.65,14.3-20.93,27.07-21.01c6.22-0.04,12.44,0,18.66,0
					c13.79,0,27.59,0,41.38,0c19.92,0,39.83,0,59.75,0c24.58,0,49.16,0,73.74,0c27.79,0,55.58,0,83.38,0c29.55,0,59.1,0,88.65,0
					c29.71,0,59.43,0,89.14,0c28.71,0,57.41,0,86.12,0c26.1,0,52.21,0,78.31,0c22.05,0,44.1,0,66.15,0c16.54,0,33.08,0,49.62,0
					c9.57,0,19.15,0,28.72,0c1.69,0,3.39-0.02,5.08,0C1166.07,269.98,1178.1,281.75,1178.4,296.94c0.06,3.17,4.99,3.18,4.93,0
					c-0.34-17.71-14.39-31.8-32.13-32.07c-1.44-0.02-2.87,0-4.31,0c-9.19,0-18.39,0-27.58,0c-16.46,0-32.92,0-49.37,0
					c-22.07,0-44.14,0-66.22,0c-26.25,0-52.5,0-78.75,0c-28.93,0-57.87,0-86.8,0c-30.26,0-60.52,0-90.78,0c-29.81,0-59.62,0-89.43,0
					c-28,0-56,0-84,0c-24.7,0-49.39,0-74.09,0c-19.9,0-39.79,0-59.69,0c-13.65,0-27.29,0-40.94,0c-5.77,0-11.54-0.07-17.31,0
					c-13.86,0.17-26.26,8.69-30.74,21.95c-1.61,4.77-1.64,9.56-1.64,14.48c0,13.71,0,27.41,0,41.12c0,24.17,0,48.34,0,72.52
					c0,29.32,0,58.64,0,87.96c0,29.48,0,58.97,0,88.45c0,24.57,0,49.14,0,73.71c0,14.58,0,29.15,0,43.73c0,2.71-0.12,5.48,0.09,8.19
					c1.29,16.8,15.38,29.51,32.08,29.76c5.22,0.08,10.45,0,15.67,0c13.11,0,26.23,0,39.34,0c19.51,0,39.03,0,58.54,0
					c24.41,0,48.83,0,73.24,0c27.95,0,55.91,0,83.86,0c29.74,0,59.48,0,89.22,0c30.15,0,60.3,0,90.45,0c29.06,0,58.13,0,87.19,0
					c26.48,0,52.96,0,79.45,0c22.5,0,44.99,0,67.49,0c16.81,0,33.61,0,50.42,0c9.73,0,19.46,0,29.2,0c1.75,0,3.5,0.02,5.25,0
					c14.55-0.2,27.65-9.77,31.3-24.08c2.28-8.97,1.01-19.62,1.01-28.75c0-19.79,0-39.57,0-59.36c0-27.42,0-54.84,0-82.26
					c0-30.04,0-60.08,0-90.12c0-27.58,0-55.16,0-82.74c0-20.11,0-40.23,0-60.34c0-7.38,0-14.76,0-22.13
					C1183.33,293.77,1178.4,293.76,1178.4,296.94z"/>
			</g>
		</g>
		<path class="st12" d="M1217.71,265.28v417.71c0,16.36-13.24,29.61-29.6,29.61H418.48c-8.66,0-16.44-3.71-21.85-9.64
			c-1.18-1.28-2.25-2.68-3.19-4.16c-2.91-4.57-4.58-10-4.58-15.82v-417.7c0-16.36,13.25-29.6,29.62-29.6h769.63
			c8.43,0,16.01,3.5,21.39,9.15C1214.61,250.13,1217.71,257.34,1217.71,265.28z"/>
		<path class="st4" d="M1217.71,265.28v40.77H388.87v-40.77c0-16.36,13.26-29.6,29.61-29.6h769.64
			C1204.48,235.68,1217.71,248.92,1217.71,265.28z"/>
		<path class="st3" d="M1165.27,282.51H497.59c-3.13,0-5.67-2.54-5.67-5.67v-6.5c0-3.13,2.54-5.67,5.67-5.67h667.68
			c3.13,0,5.67,2.54,5.67,5.67v6.5C1170.94,279.97,1168.4,282.51,1165.27,282.51z"/>
	</g>
	<g>
		<path class="st4" d="M1133.9,483.77h-70.05c-1.9,0-3.44-1.54-3.44-3.44v-5.64c0-1.9,1.54-3.44,3.44-3.44h70.05
			c1.9,0,3.44,1.54,3.44,3.44v5.64C1137.34,482.22,1135.8,483.77,1133.9,483.77z"/>
		<path class="st3" d="M1150.76,510.59h-103.77c-2.3,0-4.16-1.86-4.16-4.16v-4.22c0-2.3,1.86-4.16,4.16-4.16h103.77
			c2.3,0,4.16,1.86,4.16,4.16v4.22C1154.91,508.73,1153.05,510.59,1150.76,510.59z"/>
		<path class="st13" d="M1150.76,535.8h-103.77c-2.3,0-4.16-1.86-4.16-4.16v-4.22c0-2.3,1.86-4.16,4.16-4.16h103.77
			c2.3,0,4.16,1.86,4.16,4.16v4.22C1154.91,533.94,1153.05,535.8,1150.76,535.8z"/>
		<path class="st13" d="M1150.76,562.62h-103.77c-2.3,0-4.16-1.86-4.16-4.16v-4.22c0-2.3,1.86-4.16,4.16-4.16h103.77
			c2.3,0,4.16,1.86,4.16,4.16v4.22C1154.91,560.76,1153.05,562.62,1150.76,562.62z"/>
		<path class="st13" d="M1150.76,589.44h-103.77c-2.3,0-4.16-1.86-4.16-4.16v-4.22c0-2.3,1.86-4.16,4.16-4.16h103.77
			c2.3,0,4.16,1.86,4.16,4.16v4.22C1154.91,587.58,1153.05,589.44,1150.76,589.44z"/>
	</g>
	<g>
		<circle class="st14" cx="957.22" cy="379.97" r="47.49"/>
		<g>
			<g>
				<path class="st15" d="M949.76,404.82h-14.89c-2.4,0-4.34-1.94-4.34-4.34v-11.07c0-2.4,1.94-4.34,4.34-4.34h14.89
					c2.4,0,4.34,1.94,4.34,4.34v11.07C954.1,402.88,952.16,404.82,949.76,404.82z"/>
				<path class="st15" d="M949.76,384.72h-14.89c-2.4,0-4.34-1.94-4.34-4.34v-11.07c0-2.4,1.94-4.34,4.34-4.34h14.89
					c2.4,0,4.34,1.94,4.34,4.34v11.07C954.1,382.78,952.16,384.72,949.76,384.72z"/>
				<ellipse class="st16" cx="942.32" cy="374.85" rx="5.72" ry="4.79"/>
				<path class="st17" d="M953.96,368.22c0.09-1.11,0.66-9.44-3.83-14.02c-0.68-0.69-2.02-2.06-4.26-2.72
					c-2.34-0.7-4.33-0.22-5.19,0c-3.41,0.86-5.44,3.16-6.38,4.26c-3.9,4.53-3.86,10.12-3.79,11.81"/>
				<path class="st18" d="M945.04,351.01h-3.59c-1.1,0-2-0.9-2-2v-0.65c0-1.1,0.9-2,2-2h3.59c1.1,0,2,0.9,2,2v0.65
					C947.04,350.1,946.14,351.01,945.04,351.01z"/>
			</g>
			<g>
				<path class="st19" d="M981.49,384.72c2.45,0,4.44,1.99,4.44,4.44v11.82c0,2.45-1.99,4.44-4.44,4.44h-14.68
					c-2.45,0-4.44-1.99-4.44-4.44v-11.82c0-2.45,1.99-4.44,4.44-4.44"/>
				<path class="st20" d="M964.99,385.07c-2.32,0-4.23-1.9-4.23-4.23v-0.11c0.09-0.6,0.35-1.79,1.24-2.99
					c0.75-1.01,1.63-1.56,2.14-1.84c2.16-0.78,5.65-1.76,10.04-1.7c4.19,0.06,7.53,1.03,9.64,1.83c0.48,0.17,1.56,0.61,2.47,1.71
					c1,1.21,1.19,2.49,1.24,2.99v0.11c0.04,0.37,0.12,1.49-0.58,2.55c-1.21,1.81-3.54,1.69-3.64,1.68"/>
			</g>
		</g>
	</g>
	<g>
		<circle class="st4" cx="1403.47" cy="704.01" r="5.64"/>
		<circle class="st4" cx="1432.45" cy="704.01" r="5.64"/>
		<circle class="st4" cx="1462.1" cy="704.01" r="5.64"/>
		<g>
			<circle class="st4" cx="1403.47" cy="729.77" r="5.64"/>
			<circle class="st4" cx="1432.45" cy="729.77" r="5.64"/>
			<circle class="st4" cx="1462.1" cy="729.77" r="5.64"/>
		</g>
		<g>
			<circle class="st4" cx="1403.13" cy="754.39" r="5.64"/>
			<circle class="st4" cx="1432.11" cy="754.39" r="5.64"/>
			<circle class="st4" cx="1461.76" cy="754.39" r="5.64"/>
		</g>
	</g>
	<g>
		<circle class="st4" cx="1321.08" cy="704.58" r="5.64"/>
		<circle class="st4" cx="1350.06" cy="704.58" r="5.64"/>
		<circle class="st4" cx="1379.71" cy="704.58" r="5.64"/>
		<g>
			<circle class="st4" cx="1321.08" cy="730.33" r="5.64"/>
			<circle class="st4" cx="1350.06" cy="730.33" r="5.64"/>
			<circle class="st4" cx="1379.71" cy="730.33" r="5.64"/>
		</g>
		<g>
			<circle class="st4" cx="1320.74" cy="754.96" r="5.64"/>
			<circle class="st4" cx="1349.72" cy="754.96" r="5.64"/>
			<circle class="st4" cx="1379.37" cy="754.96" r="5.64"/>
		</g>
	</g>
	<g>
		<circle class="st4" cx="1403.3" cy="633.38" r="5.64"/>
		<circle class="st4" cx="1432.28" cy="633.38" r="5.64"/>
		<circle class="st4" cx="1461.93" cy="633.38" r="5.64"/>
		<g>
			<circle class="st4" cx="1403.3" cy="659.13" r="5.64"/>
			<circle class="st4" cx="1432.28" cy="659.13" r="5.64"/>
			<circle class="st4" cx="1461.93" cy="659.13" r="5.64"/>
		</g>
		<g>
			<circle class="st4" cx="1402.96" cy="683.76" r="5.64"/>
			<circle class="st4" cx="1431.94" cy="683.76" r="5.64"/>
			<circle class="st4" cx="1461.59" cy="683.76" r="5.64"/>
		</g>
	</g>
	<g>
		<path class="st4" d="M871.78,483.77h-70.05c-1.9,0-3.44-1.54-3.44-3.44v-5.64c0-1.9,1.54-3.44,3.44-3.44h70.05
			c1.9,0,3.44,1.54,3.44,3.44v5.64C875.22,482.22,873.68,483.77,871.78,483.77z"/>
		<path class="st13" d="M888.64,510.59H784.87c-2.3,0-4.16-1.86-4.16-4.16v-4.22c0-2.3,1.86-4.16,4.16-4.16h103.77
			c2.3,0,4.16,1.86,4.16,4.16v4.22C892.8,508.73,890.94,510.59,888.64,510.59z"/>
		<path class="st4" d="M888.64,535.8H784.87c-2.3,0-4.16-1.86-4.16-4.16v-4.22c0-2.3,1.86-4.16,4.16-4.16h103.77
			c2.3,0,4.16,1.86,4.16,4.16v4.22C892.8,533.94,890.94,535.8,888.64,535.8z"/>
		<path class="st3" d="M888.64,562.62H784.87c-2.3,0-4.16-1.86-4.16-4.16v-4.22c0-2.3,1.86-4.16,4.16-4.16h103.77
			c2.3,0,4.16,1.86,4.16,4.16v4.22C892.8,560.76,890.94,562.62,888.64,562.62z"/>
		<path class="st13" d="M888.64,589.44H784.87c-2.3,0-4.16-1.86-4.16-4.16v-4.22c0-2.3,1.86-4.16,4.16-4.16h103.77
			c2.3,0,4.16,1.86,4.16,4.16v4.22C892.8,587.58,890.94,589.44,888.64,589.44z"/>
	</g>
	<g>
		<path class="st3" d="M1006.06,483.77h-70.05c-1.9,0-3.44-1.54-3.44-3.44v-5.64c0-1.9,1.54-3.44,3.44-3.44h70.05
			c1.9,0,3.44,1.54,3.44,3.44v5.64C1009.5,482.22,1007.96,483.77,1006.06,483.77z"/>
		<path class="st13" d="M1022.92,510.59H919.15c-2.3,0-4.16-1.86-4.16-4.16v-4.22c0-2.3,1.86-4.16,4.16-4.16h103.77
			c2.3,0,4.16,1.86,4.16,4.16v4.22C1027.08,508.73,1025.22,510.59,1022.92,510.59z"/>
		<path class="st13" d="M1022.92,535.8H919.15c-2.3,0-4.16-1.86-4.16-4.16v-4.22c0-2.3,1.86-4.16,4.16-4.16h103.77
			c2.3,0,4.16,1.86,4.16,4.16v4.22C1027.08,533.94,1025.22,535.8,1022.92,535.8z"/>
		<path class="st13" d="M1022.92,562.62H919.15c-2.3,0-4.16-1.86-4.16-4.16v-4.22c0-2.3,1.86-4.16,4.16-4.16h103.77
			c2.3,0,4.16,1.86,4.16,4.16v4.22C1027.08,560.76,1025.22,562.62,1022.92,562.62z"/>
		<path class="st4" d="M1022.92,589.44H919.15c-2.3,0-4.16-1.86-4.16-4.16v-4.22c0-2.3,1.86-4.16,4.16-4.16h103.77
			c2.3,0,4.16,1.86,4.16,4.16v4.22C1027.08,587.58,1025.22,589.44,1022.92,589.44z"/>
	</g>
	<circle class="st21" cx="700.57" cy="382.97" r="47.49"/>
	<path class="st22" d="M745.89,636.76h-81.54c-4,0-7.27-3.27-7.27-7.27v-8.87c0-4,3.27-7.27,7.27-7.27h81.54
		c4,0,7.27,3.27,7.27,7.27v8.87C753.17,633.48,749.89,636.76,745.89,636.76z"/>
	<path class="st22" d="M877.52,636.76h-81.53c-4,0-7.27-3.27-7.27-7.27v-8.87c0-4,3.27-7.27,7.27-7.27h81.54
		c4,0,7.27,3.27,7.27,7.27v8.87C884.8,633.48,881.52,636.76,877.52,636.76z"/>
	<path class="st22" d="M1008.68,636.76h-81.54c-4,0-7.27-3.27-7.27-7.27v-8.87c0-4,3.27-7.27,7.27-7.27h81.54
		c4,0,7.27,3.27,7.27,7.27v8.87C1015.96,633.48,1012.68,636.76,1008.68,636.76z"/>
	<g>
		<path class="st4" d="M1249.39,251.4c0.42-0.68,4.04-6.35,11-7c5.01-0.47,8.66,1.96,9.67,2.69c-2.07-12.14,4.86-25.26,16.07-30.38
			s25.66-1.78,33.48,7.74c4.59-15.46,9.39-31.33,19.38-43.98s26.54-21.5,42.22-17.71c15.67,3.79,26.7,23.65,18.06,37.27
			c6.93-9.49,20.66-13.31,31.5-8.77s17.75,17,15.85,28.6c11.88-11.27,29.25-13.49,42.18-5.88c15.79,9.28,16.56,28.27,16.59,29.43
			c6.33,2,12.67,4,19,6C1432.72,250.07,1341.06,250.73,1249.39,251.4z"/>
	</g>
	<g>
		<path class="st4" d="M109.38,503.13c-0.02-0.68,10.03-1.69,30.16-3.01c-0.84-2.91-0.8-6.02-0.37-9.01
			c1.69-11.75,10.4-22.71,22-25.21c11.6-2.51,25,5.15,27.12,16.83c0.6-19.7,8.43-36.15,20.11-42.32c7.25-3.83,14.68-3.98,14.68-3.98
			c7.84-0.16,13.77,2.36,16.49,4.24c12.56,8.69,19.86,22.95,26.6,36.65c7.83-9.01,17.46-11.32,21.94-7.94
			c0.64,0.49,3.04,2.49,3.3,8.03c5.04-3.4,9.32-3.78,11.51-3.75c10.37,0.1,20.52,9.56,24.49,23.75c5,1.33,10,2.67,15,4
			C187.1,504.45,109.44,505.02,109.38,503.13z"/>
	</g>
	<g>
		<circle class="st7" cx="1086.82" cy="376.97" r="47.49"/>
		<g>
			<ellipse class="st23" cx="1086.32" cy="363.86" rx="11.93" ry="10.47"/>
			<path class="st23" d="M1099.73,386.23c0.51,1.27,4.32,11.05-0.85,16.43c-3.32,3.45-8.46,3.15-12.94,2.89
				c-3.99-0.23-10.17-0.59-12.85-4.94c-2.06-3.33-0.99-7.28-0.18-10.3c0.58-2.17,4.54-15.73,13.42-15.99
				C1093.17,374.13,1098.01,382,1099.73,386.23z"/>
			<circle class="st23" cx="1073.18" cy="355.36" r="4.38"/>
			<circle class="st23" cx="1098.92" cy="354.54" r="4.38"/>
			<path class="st24" d="M1077,381.65h-6.46c-2.2,0-4.01-1.8-4.01-4.01l0,0c0-2.2,1.8-4.01,4.01-4.01h7.71
				c1.36,0,2.57,0.69,3.29,1.73"/>
			<path class="st24" d="M1092.05,375.43c0.72-1.08,1.95-1.79,3.33-1.79h7.71c2.2,0,4.01,1.8,4.01,4.01l0,0
				c0,2.2-1.8,4.01-4.01,4.01h-5.8"/>
			<ellipse class="st25" cx="1093.2" cy="398.98" rx="4.67" ry="5.62"/>
			<ellipse class="st25" cx="1079.73" cy="398.98" rx="4.67" ry="5.62"/>
		</g>
	</g>
	<g>
		<path class="st26" d="M1279.51,489.07l-64.64-37.32c-3.72-2.15-4.99-6.9-2.85-10.62l46.84-81.13c2.15-3.72,6.9-4.99,10.62-2.85
			l64.64,37.32c3.72,2.15,4.99,6.9,2.85,10.62l-46.84,81.13C1287.98,489.94,1283.23,491.22,1279.51,489.07z"/>
		<path class="st2" d="M1283.01,480.93l-62.65-36.17c-2.3-1.33-3.08-4.26-1.76-6.56l43.39-75.16c1.33-2.3,4.26-3.09,6.56-1.76
			l62.65,36.17c2.3,1.33,3.08,4.26,1.76,6.56l-43.39,75.16C1288.24,481.47,1285.3,482.26,1283.01,480.93z"/>
		<circle class="st2" cx="1249.63" cy="466.4" r="1.64"/>
	</g>
	<g>
		
			<rect x="210.38" y="680.79" transform="matrix(0.9225 -0.3859 0.3859 0.9225 -247.5022 139.7826)" class="st27" width="28.11" height="11.2"/>
		
			<rect x="210.55" y="655.61" transform="matrix(0.9225 -0.3859 0.3859 0.9225 -241.4474 135.3329)" class="st9" width="11.64" height="26.94"/>
		<path class="st9" d="M247.35,660.68l-46.25,19.34c-0.93,0.39-1.96-0.31-1.94-1.32l0.44-19.87c0.01-0.55,0.35-1.05,0.86-1.26
			l47.93-20.05c0.98-0.41,2.04,0.38,1.93,1.43l-2.12,20.57C248.15,660.04,247.82,660.48,247.35,660.68z"/>
		
			<rect x="247.94" y="636.47" transform="matrix(0.9225 -0.3859 0.3859 0.9225 -227.385 146.5972)" class="st27" width="7.04" height="6.43"/>
		<path class="st27" d="M248.11,660.36c1.07,3.78,3.14,7.26,6.01,10.17c2.86,2.93,6.55,5.18,10.64,6.42l-0.83,3.83
			c-4.86-0.72-9.63-2.67-13.69-5.74c-4.07-3.06-7.25-6.84-9.42-11.62L248.11,660.36z"/>
		<path class="st22" d="M310.63,788.21l-57.37,24.25c-4.31,1.82-9.28-0.32-10.91-4.71l-36.75-98.8c-1.54-4.14,0.46-8.75,4.53-10.45
			l32.17-13.46c4.19-1.75,9.01,0.22,10.76,4.41l11.51,27.52c0.89,2.13,2.64,3.79,4.81,4.57l13.58,4.87
			c1.81,0.65,3.34,1.92,4.32,3.58l1.88,3.2l16.58,28.29l8.79,15C317.04,780.76,315.21,786.27,310.63,788.21z"/>
		<path class="st4" d="M305.74,761.47c-2.19,1.46-4.63,2.77-7.28,3.88c-13.88,5.81-28.03,3.61-31.59-4.91
			c-3.56-8.51,4.81-20.12,18.7-25.93c1.19-0.51,2.4-0.95,3.6-1.33L305.74,761.47z"/>
	</g>
	<g>
		<path class="st28" d="M147.38,410.89l-27.71-10.6l0.37-0.04c-8.14,5.61-16.35,11.14-24.52,16.71l-1.1,0.75l0.08-1.34l1.72-29.62
			l0.32,0.73l-23.35-18.3l-1.48-1.16l1.82-0.47l28.73-7.4l-0.69,0.62l10.32-27.82l0.66-1.77l1,1.59l15.79,25.12l-0.69-0.4
			l29.64,1.35l1.34,0.06l-0.86,1.02c-6.38,7.55-12.72,15.14-19.15,22.66l0.08-0.36L147.38,410.89z M147.38,410.89l-4.24-14.34
			l-4.21-14.11l-0.06-0.2l0.14-0.17c6.21-7.7,12.5-15.33,18.75-22.99l0.48,1.08l-29.65-0.96l-0.45-0.01l-0.24-0.38l-15.92-25.04
			l1.66-0.18l-10.19,27.86l-0.18,0.49l-0.51,0.13l-28.77,7.26l0.34-1.63l23.26,18.42l0.36,0.28l-0.03,0.44l-2.11,29.59l-1.02-0.59
			c8.27-5.43,16.51-10.9,24.81-16.28l0.18-0.12l0.19,0.08l13.6,5.64L147.38,410.89z"/>
	</g>
	<g>
		<circle class="st11" cx="1185.59" cy="109.35" r="42.89"/>
		<g>
			<path class="st4" d="M1170.95,69.02c7.8,2.56,15.1,6.93,21.06,12.74c3,2.89,5.6,6.18,7.85,9.7c2.31,3.5,3.86,7.41,5.32,11.33
				c2.5,7.98,3.14,16.56,1.69,24.75c-0.31,2.06-0.81,4.07-1.32,6.08l-0.92,2.97c-0.31,0.99-0.7,1.95-1.06,2.92
				c-1.55,3.83-3.35,7.57-5.7,10.95c1.95-3.61,3.56-7.39,4.77-11.28c1.27-3.87,2.18-7.85,2.68-11.87l0.2-1.5l0.1-1.51
				c0.06-1.01,0.17-2.01,0.19-3.02c-0.03-2.02,0.05-4.04-0.21-6.04c-0.12-1-0.11-2.01-0.31-3l-0.52-2.97c-0.13-1-0.45-1.96-0.7-2.93
				c-0.27-0.97-0.52-1.94-0.81-2.91c-2.51-7.66-6.78-14.7-12.37-20.55c-2.8-2.92-5.91-5.56-9.27-7.86
				C1178.31,72.65,1174.72,70.67,1170.95,69.02z"/>
		</g>
		<g>
			<path class="st4" d="M1168,148.47c3.46-3.37,7.24-6.42,11.28-9.1c2.01-1.36,4.1-2.6,6.24-3.76c2.15-1.14,4.35-2.18,6.61-3.11
				c2.28-0.88,4.57-1.71,6.94-2.33c2.38-0.59,4.85-1.08,7.38-0.94c2.53,0.09,5.03,0.92,7.1,2.31c2.06,1.4,3.7,3.32,4.83,5.45
				c-1.5-1.89-3.28-3.53-5.34-4.61c-2.05-1.11-4.33-1.63-6.62-1.59c-2.29,0.05-4.59,0.53-6.84,1.2c-2.27,0.65-4.5,1.47-6.7,2.36
				c-4.4,1.77-8.64,3.95-12.78,6.34C1175.98,143.08,1171.99,145.74,1168,148.47z"/>
		</g>
		<g>
			<path class="st4" d="M1155.72,78.58c4.23,1.32,8.45,2.52,12.74,3.37c2.14,0.41,4.29,0.77,6.45,0.97
				c1.08,0.13,2.16,0.16,3.23,0.24c1.08,0.01,2.16,0.04,3.22-0.02c2.15-0.06,4.26-0.37,6.31-0.89c2.02-0.56,3.95-1.45,5.48-2.79
				c0.19-0.17,0.39-0.33,0.57-0.51l0.47-0.59c0.33-0.39,0.63-0.8,0.86-1.25c0.48-0.9,0.78-1.91,0.94-2.96
				c0.35-2.1,0.11-4.31-0.25-6.49c0.79,2.06,1.31,4.28,1.23,6.59c-0.05,1.15-0.27,2.31-0.72,3.41c-0.21,0.56-0.53,1.07-0.88,1.55
				l-0.51,0.74c-0.19,0.23-0.41,0.43-0.62,0.64c-1.67,1.72-3.85,2.75-6.03,3.48c-2.22,0.62-4.49,0.97-6.76,1.07
				c-4.54,0.17-9.02-0.52-13.34-1.67C1163.79,82.31,1159.62,80.66,1155.72,78.58z"/>
		</g>
		<g>
			<path class="st4" d="M1147.17,128.43c2.28-2.97,4.81-5.75,7.47-8.4c2.7-2.62,5.56-5.08,8.56-7.36
				c6.02-4.56,12.7-8.29,19.78-11.03c0.89-0.33,1.77-0.7,2.67-0.98l2.73-0.83c1.8-0.6,3.66-1,5.52-1.4
				c1.85-0.46,3.74-0.67,5.62-0.92c0.94-0.1,1.87-0.3,2.83-0.33l2.84-0.12c7.57-0.4,15.17,0.71,22.28,3.04
				c-7.39-1.11-14.82-1.53-22.12-0.7c-1.83,0.19-3.65,0.35-5.45,0.71c-1.8,0.32-3.61,0.58-5.38,1.09l-2.66,0.65
				c-0.9,0.19-1.75,0.53-2.63,0.79l-2.61,0.83c-0.87,0.28-1.71,0.66-2.56,0.98l-2.57,0.97l-2.5,1.13c-0.83,0.39-1.68,0.73-2.49,1.16
				l-2.44,1.26c-1.66,0.79-3.21,1.78-4.82,2.68c-0.81,0.44-1.55,0.98-2.34,1.46c-0.78,0.49-1.57,0.96-2.33,1.48
				c-3.05,2.07-6.05,4.23-8.94,6.56C1152.72,123.44,1149.94,125.9,1147.17,128.43z"/>
		</g>
	</g>
	<g>
		<path class="st22" d="M1366.79,608.3l-31.69,13.81c-2.62,1.14-5.68-0.06-6.82-2.68l-13.81-31.69c-1.14-2.62,0.06-5.68,2.68-6.82
			l31.69-13.81c2.62-1.14,5.68,0.06,6.82,2.68l13.81,31.69C1370.62,604.1,1369.42,607.16,1366.79,608.3z"/>
		<path class="st22" d="M1395.65,662.89l-39.8,17.35c-2.77,1.21-6-0.06-7.21-2.83l-20.7-47.49c-1.21-2.77,0.06-6,2.83-7.21
			l39.8-17.35c2.77-1.21,6,0.06,7.21,2.83l20.7,47.49C1399.69,658.45,1398.42,661.68,1395.65,662.89z"/>
		<path class="st29" d="M1337.22,572.17l-8.52,3.71c-1.31,0.57-2.83-0.03-3.39-1.33l-1.23-2.82c-0.57-1.31,0.03-2.83,1.33-3.39
			l8.52-3.71c1.31-0.57,2.83,0.03,3.39,1.33l1.23,2.82C1339.12,570.08,1338.52,571.6,1337.22,572.17z"/>
		
			<rect x="1335.16" y="627.77" transform="matrix(0.9167 -0.3995 0.3995 0.9167 -142.6395 597.6531)" class="st4" width="54.38" height="26.45"/>
	</g>
	<g>
		<path class="st4" d="M1347.55,614.03c7.27-2.72,14.53-5.43,21.8-8.15"/>
		<path class="st4" d="M1347.55,614.03c1.67-1.07,3.41-1.95,5.18-2.77s3.55-1.57,5.37-2.25c1.81-0.68,3.66-1.29,5.53-1.83
			c1.87-0.54,3.76-1.02,5.72-1.31c-1.67,1.07-3.41,1.95-5.18,2.77c-1.77,0.81-3.55,1.57-5.37,2.24c-1.82,0.68-3.66,1.29-5.53,1.83
			C1351.4,613.26,1349.51,613.74,1347.55,614.03z"/>
	</g>
	<path class="st30" d="M497.93,903.43l-22.89-3.58c-6.52-1.02-11.02-7.19-10-13.71l3.58-22.89c1.02-6.52,7.19-11.02,13.71-10
		l22.89,3.58c6.52,1.02,11.02,7.19,10,13.71l-3.58,22.89C510.62,899.94,504.45,904.45,497.93,903.43z"/>
	<path class="st31" d="M413.4,877.54l-20.07,11.59c-5.72,3.3-13.09,1.32-16.39-4.39l-11.59-20.07c-3.3-5.72-1.32-13.09,4.39-16.39
		l20.07-11.59c5.72-3.3,13.09-1.32,16.39,4.39l11.59,20.07C421.09,866.86,419.11,874.24,413.4,877.54z"/>
	<text transform="matrix(0.9009 -0.4341 0.4341 0.9009 386.4098 878.362)" class="st4 st32 st33">A</text>
	<text transform="matrix(0.9797 0.2006 -0.2006 0.9797 476.677 891.1383)" class="st4 st32 st34">B</text>
	<g>
		<path class="st35" d="M441.07,959.92l-22.46,5.71c-6.4,1.63-12.96-2.28-14.59-8.67l-5.71-22.46c-1.63-6.4,2.28-12.96,8.67-14.59
			l22.46-5.71c6.4-1.63,12.96,2.28,14.59,8.67l5.71,22.46C451.37,951.73,447.47,958.3,441.07,959.92z"/>
		<text transform="matrix(0.9743 -0.2252 0.2252 0.9743 414.612 955.1236)" class="st4 st32 st34">C</text>
	</g>
	<g>
		<g>
			<g class="st36">
				<g>
					<polygon class="st37" points="1494.39,601.04 1507.22,575.97 1522.43,604.88 1509.59,629.95 					"/>
				</g>
				<g>
					<polygon class="st38" points="1461.42,604.46 1474.25,579.39 1507.22,575.97 1494.39,601.04 					"/>
				</g>
				<g>
					<polygon class="st38" points="1494.39,601.04 1509.59,629.95 1476.62,633.37 1461.42,604.46 					"/>
				</g>
			</g>
		</g>
		<g>
			<path class="st4" d="M1482.89,602.24c3.79-0.79,7.62-1.28,11.45-1.69l-0.39,0.27c1.78-3.45,3.63-6.86,5.75-10.13
				c-1.41,3.63-3.1,7.13-4.86,10.58l-0.12,0.24l-0.27,0.03C1490.61,601.92,1486.76,602.23,1482.89,602.24z"/>
		</g>
	</g>
	<g>
		<g>
			<polygon class="st27" points="1438.81,438.8 1403.73,490.88 1466.37,495.22 			"/>
			
				<ellipse transform="matrix(0.0691 -0.9976 0.9976 0.0691 842.6122 1891.7174)" class="st27" cx="1434.95" cy="494.36" rx="8.85" ry="31.7"/>
		</g>
		<g>
			<path class="st4" d="M1441.07,491.61c3.68,0.14,7.3,0.12,10.91-0.27c3.61-0.36,7.16-1.09,10.73-1.99
				c-3.3,1.64-6.95,2.58-10.62,2.98C1448.4,492.71,1444.65,492.53,1441.07,491.61z"/>
		</g>
		<g>
			<path class="st4" d="M1450.28,485.05c1.48-0.38,2.9-0.56,4.34-0.77c0.72-0.07,1.43-0.24,2.15-0.32c0.72-0.09,1.46-0.15,2.24-0.11
				c-0.66,0.36-1.36,0.64-2.07,0.88s-1.44,0.45-2.18,0.55C1453.27,485.46,1451.75,485.46,1450.28,485.05z"/>
		</g>
	</g>
	<g>
		<path class="st1" d="M1557.59,866.11c0.03,4.55-1.8,9.08-4.99,12.37c-3.16,3.32-7.69,5.38-12.37,5.48
			c-4.68,0.14-9.44-1.66-12.88-4.98c-1.71-1.66-3.11-3.66-4.04-5.87s-1.42-4.61-1.43-7.01c0.01-2.4,0.5-4.8,1.43-7.01
			s2.33-4.21,4.04-5.87c3.44-3.32,8.21-5.12,12.89-4.98c4.69,0.11,9.22,2.16,12.38,5.49
			C1555.79,857.03,1557.62,861.56,1557.59,866.11z M1557.59,866.11c-0.02-2.27-0.48-4.54-1.36-6.63s-2.21-3.98-3.83-5.55
			c-3.26-3.14-7.76-4.82-12.18-4.68c-4.43,0.11-8.69,2.05-11.67,5.19c-3,3.11-4.72,7.37-4.7,11.67c-0.03,4.29,1.69,8.55,4.69,11.67
			c2.97,3.14,7.24,5.09,11.67,5.19c4.42,0.14,8.92-1.55,12.18-4.69c1.62-1.57,2.94-3.46,3.83-5.55
			C1557.12,870.65,1557.58,868.39,1557.59,866.11z"/>
	</g>
	<g>
		<g>
			<path class="st1" d="M832.05,830.98c2.18,2.85,4.27,5.75,6.34,8.67c2.08,2.91,4.1,5.87,6.12,8.82c2,2.97,3.99,5.94,5.93,8.95
				l2.9,4.52c0.93,1.53,1.9,3.04,2.81,4.58c-1.1-1.42-2.14-2.87-3.21-4.31l-3.13-4.36c-2.08-2.91-4.1-5.87-6.12-8.82
				c-2-2.97-3.99-5.94-5.93-8.95C835.82,837.07,833.89,834.06,832.05,830.98z"/>
		</g>
		<g>
			<path class="st1" d="M825.03,858.61c3.08-1.83,6.22-3.56,9.36-5.27c3.14-1.72,6.31-3.38,9.48-5.03c3.18-1.63,6.37-3.27,9.59-4.83
				l4.83-2.34c1.63-0.75,3.24-1.53,4.88-2.25c-1.54,0.92-3.1,1.79-4.66,2.68l-4.7,2.59c-3.14,1.72-6.31,3.38-9.48,5.03
				c-3.18,1.63-6.37,3.26-9.59,4.83S828.3,857.15,825.03,858.61z"/>
		</g>
	</g>
	<g>
		<circle class="st9" cx="828.65" cy="381.44" r="47.49"/>
		<g>
			<path class="st39" d="M846.22,409.15h-35.15c-3.27,0-5.92-2.65-5.92-5.92v-38.91c0-3.27,2.65-5.92,5.92-5.92h35.15
				c3.27,0,5.92,2.65,5.92,5.92v38.91C852.15,406.5,849.5,409.15,846.22,409.15z"/>
			<line class="st39" x1="805.15" y1="363.5" x2="851.12" y2="363.5"/>
			<g>
				<circle class="st40" cx="813.63" cy="369.9" r="2.95"/>
				<circle class="st40" cx="823.72" cy="369.9" r="2.95"/>
				<circle class="st40" cx="833.8" cy="369.9" r="2.95"/>
				<circle class="st40" cx="843.67" cy="369.86" r="2.95"/>
			</g>
			<line class="st40" x1="804.63" y1="376.81" x2="851.64" y2="376.81"/>
			<path class="st41" d="M842.81,402.42h-28.32c-2.11,0-3.81-1.71-3.81-3.81v-13.36c0-2.11,1.71-3.81,3.81-3.81h28.32
				c2.11,0,3.81,1.71,3.81,3.81v13.36C846.62,400.71,844.91,402.42,842.81,402.42z"/>
		</g>
	</g>
	<g>
		<path class="st42" d="M719.62,405.37h-39.13c-1.13,0-2.05-0.92-2.05-2.05v-44.24c0-1.13,0.92-2.05,2.05-2.05h39.13
			c1.13,0,2.05,0.92,2.05,2.05v44.24C721.68,404.45,720.76,405.37,719.62,405.37z"/>
		<path class="st43" d="M721.68,404.37v6.59c0,1.47-0.94,2.66-2.11,2.66h-39.01c-1.16,0-2.11-1.19-2.11-2.66v-7.93"/>
		<path class="st42" d="M708.93,376.62h-17.64c-0.98,0-1.77-0.79-1.77-1.77v-5.79c0-0.98,0.79-1.77,1.77-1.77h17.64
			c0.98,0,1.77,0.79,1.77,1.77v5.79C710.7,375.83,709.9,376.62,708.93,376.62z"/>
		<line class="st42" x1="700.06" y1="409.11" x2="721.68" y2="409.11"/>
	</g>
	<g>
		<path class="st3" d="M565.47,614.59h-110.1c-17.05,0-30.87-13.82-30.87-30.87V341.67c0-17.05,13.82-30.87,30.87-30.87h110.1
			c17.05,0,30.87,13.82,30.87,30.87v242.05C596.34,600.77,582.52,614.59,565.47,614.59z"/>
		<path class="st13" d="M535.82,466.67h-47.16c-1.58,0-2.85-1.28-2.85-2.85V457c0-1.58,1.28-2.85,2.85-2.85h47.16
			c1.58,0,2.85,1.28,2.85,2.85v6.82C538.68,465.39,537.4,466.67,535.82,466.67z"/>
		<path class="st4" d="M561.91,490.98H458.14c-2.3,0-4.16-1.86-4.16-4.16v-4.22c0-2.3,1.86-4.16,4.16-4.16h103.77
			c2.3,0,4.16,1.86,4.16,4.16v4.22C566.06,489.12,564.2,490.98,561.91,490.98z"/>
		<path class="st4" d="M564.13,541.43H460.36c-2.3,0-4.16-1.86-4.16-4.16v-4.22c0-2.3,1.86-4.16,4.16-4.16h103.77
			c2.3,0,4.16,1.86,4.16,4.16v4.22C568.29,539.57,566.43,541.43,564.13,541.43z"/>
		<path class="st13" d="M561.68,516.11H445.84c-2.42,0-4.38-1.96-4.38-4.38v-3.77c0-2.42,1.96-4.38,4.38-4.38h115.84
			c2.42,0,4.38,1.96,4.38,4.38v3.77C566.06,514.15,564.1,516.11,561.68,516.11z"/>
		<path class="st13" d="M574.43,390.74H470.66c-2.3,0-4.16-1.86-4.16-4.16v-4.22c0-2.3,1.86-4.16,4.16-4.16h103.77
			c2.3,0,4.16,1.86,4.16,4.16v4.22C578.58,388.88,576.72,390.74,574.43,390.74z"/>
		<path class="st4" d="M575.73,414.95h-47.16c-1.58,0-2.85-1.28-2.85-2.85v-6.82c0-1.58,1.28-2.85,2.85-2.85h47.16
			c1.58,0,2.85,1.28,2.85,2.85v6.82C578.58,413.67,577.31,414.95,575.73,414.95z"/>
		<path class="st4" d="M494.03,587.2h-47.16c-1.58,0-2.85-1.28-2.85-2.85v-6.82c0-1.58,1.28-2.85,2.85-2.85h47.16
			c1.58,0,2.85,1.28,2.85,2.85v6.82C496.88,585.92,495.6,587.2,494.03,587.2z"/>
		<path class="st13" d="M575.73,587.2h-47.16c-1.58,0-2.85-1.28-2.85-2.85v-6.82c0-1.58,1.28-2.85,2.85-2.85h47.16
			c1.58,0,2.85,1.28,2.85,2.85v6.82C578.58,585.92,577.31,587.2,575.73,587.2z"/>
		<path class="st13" d="M573.99,439.15H446.06c-2.54,0-4.6-2.06-4.6-4.6v-3.34c0-2.54,2.06-4.6,4.6-4.6h127.93
			c2.54,0,4.6,2.06,4.6,4.6v3.34C578.58,437.1,576.53,439.15,573.99,439.15z"/>
	</g>
	<g>
		<path class="st4" d="M740.15,483.77H670.1c-1.9,0-3.44-1.54-3.44-3.44v-5.64c0-1.9,1.54-3.44,3.44-3.44h70.05
			c1.9,0,3.44,1.54,3.44,3.44v5.64C743.59,482.22,742.05,483.77,740.15,483.77z"/>
		<path class="st3" d="M757.01,510.59H653.24c-2.3,0-4.16-1.86-4.16-4.16v-4.22c0-2.3,1.86-4.16,4.16-4.16h103.77
			c2.3,0,4.16,1.86,4.16,4.16v4.22C761.17,508.73,759.31,510.59,757.01,510.59z"/>
		<path class="st13" d="M757.01,535.8H653.24c-2.3,0-4.16-1.86-4.16-4.16v-4.22c0-2.3,1.86-4.16,4.16-4.16h103.77
			c2.3,0,4.16,1.86,4.16,4.16v4.22C761.17,533.94,759.31,535.8,757.01,535.8z"/>
		<path class="st4" d="M757.01,562.62H653.24c-2.3,0-4.16-1.86-4.16-4.16v-4.22c0-2.3,1.86-4.16,4.16-4.16h103.77
			c2.3,0,4.16,1.86,4.16,4.16v4.22C761.17,560.76,759.31,562.62,757.01,562.62z"/>
		<path class="st13" d="M757.01,589.44H653.24c-2.3,0-4.16-1.86-4.16-4.16v-4.22c0-2.3,1.86-4.16,4.16-4.16h103.77
			c2.3,0,4.16,1.86,4.16,4.16v4.22C761.17,587.58,759.31,589.44,757.01,589.44z"/>
	</g>
	<g>
		<g>
			<path class="st1" d="M641.26,526.61l-50.76,0.18l-50.76,0.44l-3.17,0.03c-0.51,0-1.1,0.02-1.68-0.07
				c-0.58-0.06-1.14-0.23-1.69-0.44c-2.18-0.85-3.89-2.8-4.43-5.1c-0.14-0.57-0.2-1.17-0.21-1.74l-0.01-1.59l-0.03-3.17l-0.06-6.35
				l-0.21-25.38l-0.09-25.38l-0.05-12.69l-0.01-1.59v-0.81c0.02-0.31,0.01-0.63,0.07-0.93c0.16-1.24,0.61-2.45,1.34-3.47
				c1.42-2.07,3.89-3.37,6.41-3.37l50.76,0.18l50.76,0.44l3.17,0.03c0.51,0.01,1.09,0,1.67,0.1c0.57,0.07,1.12,0.25,1.66,0.46
				c2.13,0.87,3.77,2.81,4.25,5.05c0.13,0.55,0.17,1.13,0.17,1.69l-0.01,1.59l-0.03,3.17l-0.06,6.35l-0.21,25.38L647.96,505
				l-0.05,12.69c-0.03,1.06,0.05,2.11-0.07,3.17c-0.15,1.05-0.53,2.07-1.15,2.94C645.47,525.55,643.38,526.62,641.26,526.61z
				 M641.26,526.61c2.12,0,4.2-1.09,5.39-2.84c0.61-0.86,0.98-1.88,1.12-2.92c0.11-1.04,0.03-2.11,0.05-3.17l-0.05-12.69
				l-0.09-25.38l-0.21-25.38l-0.06-6.35l-0.03-3.17l-0.01-1.59c-0.01-0.5-0.06-0.98-0.18-1.46c-0.44-1.91-1.87-3.53-3.68-4.23
				c-0.45-0.16-0.92-0.31-1.4-0.36c-0.47-0.07-0.95-0.06-1.5-0.05l-3.17,0.03l-50.76,0.44l-50.76,0.18
				c-1.72-0.01-3.42,0.86-4.41,2.28c-0.51,0.7-0.81,1.53-0.93,2.38c-0.05,0.21-0.03,0.43-0.05,0.65l-0.01,0.78l-0.01,1.59
				l-0.05,12.69l-0.09,25.38l-0.21,25.38l-0.06,6.35l-0.03,3.17l-0.01,1.59c0,0.49,0.03,0.95,0.14,1.41
				c0.39,1.84,1.74,3.45,3.5,4.17c0.44,0.17,0.9,0.32,1.37,0.38c0.46,0.08,0.94,0.08,1.49,0.08l3.17,0.03l50.76,0.44L641.26,526.61z
				"/>
		</g>
		<g>
			<g>
				<line class="st44" x1="599.86" y1="461.07" x2="579.56" y2="481.38"/>
				<circle class="st44" cx="583.38" cy="464.32" r="3.99"/>
				<circle class="st44" cx="597.96" cy="476.77" r="3.99"/>
			</g>
			<g>
				<g>
					<path class="st44" d="M555.66,451.18l7.65,3.09c2.1,0.85,3.47,2.88,3.47,5.14v36.03c0,3.31,2.68,5.99,5.99,5.99h34"/>
					<path class="st44" d="M611.54,468.92v15.4c0,2.83-2.3,5.13-5.13,5.13h-33.64c-3.31,0-5.99-2.68-5.99-5.99v-0.71"/>
					<circle class="st44" cx="576.76" cy="506.42" r="4.99"/>
					<circle class="st44" cx="603.49" cy="506.42" r="4.99"/>
				</g>
			</g>
		</g>
	</g>
	<g>
		<g>
			<path class="st1" d="M972.99,290.76l50.76-0.18l50.76-0.44l3.17-0.03c0.55-0.01,1.02,0,1.49-0.08c0.47-0.06,0.93-0.21,1.37-0.38
				c1.76-0.72,3.11-2.33,3.5-4.17c0.11-0.46,0.14-0.92,0.14-1.41l-0.01-1.59l-0.03-3.17l-0.06-6.35l-0.21-25.38l-0.09-25.38
				l-0.05-12.69l-0.01-1.59l-0.01-0.78c-0.02-0.22-0.01-0.43-0.05-0.65c-0.12-0.85-0.43-1.68-0.93-2.38
				c-0.99-1.42-2.69-2.29-4.41-2.28l-50.76-0.18l-50.76-0.44l-3.17-0.03c-0.55,0-1.03-0.02-1.5,0.05c-0.48,0.05-0.95,0.19-1.4,0.36
				c-1.81,0.7-3.23,2.32-3.68,4.23c-0.12,0.48-0.16,0.96-0.18,1.46l-0.01,1.59l-0.03,3.17l-0.06,6.35l-0.21,25.38l-0.09,25.38
				l-0.05,12.69c0.02,1.05-0.06,2.12,0.05,3.17c0.14,1.04,0.51,2.06,1.12,2.92C968.79,289.67,970.87,290.76,972.99,290.76z
				 M972.99,290.76c-2.12,0.01-4.21-1.06-5.43-2.81c-0.62-0.86-1-1.89-1.15-2.94c-0.12-1.06-0.05-2.12-0.07-3.17l-0.05-12.69
				l-0.09-25.38l-0.21-25.38l-0.06-6.35l-0.03-3.17l-0.01-1.59c0-0.56,0.04-1.13,0.17-1.69c0.48-2.24,2.12-4.18,4.25-5.05
				c0.53-0.21,1.09-0.39,1.66-0.46c0.57-0.09,1.16-0.09,1.67-0.1l3.17-0.03l50.76-0.44l50.76-0.18c2.52,0,5,1.29,6.41,3.37
				c0.72,1.02,1.17,2.24,1.34,3.47c0.06,0.31,0.04,0.62,0.07,0.93v0.81l-0.01,1.59l-0.05,12.69l-0.09,25.38l-0.21,25.38l-0.06,6.35
				l-0.03,3.17l-0.01,1.59c-0.01,0.57-0.07,1.17-0.21,1.74c-0.53,2.3-2.25,4.26-4.43,5.1c-0.55,0.2-1.11,0.37-1.69,0.44
				c-0.58,0.09-1.17,0.07-1.68,0.07l-3.17-0.03l-50.76-0.44L972.99,290.76z"/>
		</g>
		<g>
			<circle class="st44" cx="1025.66" cy="231.47" r="13.54"/>
			<path class="st44" d="M1045.57,270.81c0,0.44-0.01,0.87-0.03,1.3h-39.77c-0.02-0.43-0.03-0.86-0.03-1.3
				c0-12.89,8.92-23.33,19.91-23.33S1045.57,257.92,1045.57,270.81z"/>
			<path class="st44" d="M1011.71,226.35c0.14,0,0.27,0,0.41,0.01v12.39c-0.13,0.01-0.27,0.01-0.41,0.01c-4.01,0-7.27-2.78-7.27-6.2
				S1007.7,226.35,1011.71,226.35z"/>
			<path class="st44" d="M1039.6,225.82c-0.14,0-0.27,0-0.41,0.01v12.39c0.13,0.01,0.27,0.01,0.41,0.01c4.01,0,7.27-2.78,7.27-6.2
				S1043.62,225.82,1039.6,225.82z"/>
			<path class="st44" d="M1009.02,226.05c0.54-1.48,2.72-6.92,8.57-10c0.78-0.41,8.84-4.47,16.47,0c5.14,3.01,6.9,8.04,7.34,9.45"/>
			<path class="st44" d="M1029.22,239.13c0.92,0.03,2.23,0.02,3.8-0.13c1.28-0.12,1.92-0.18,2.52-0.41c0.57-0.22,2.3-1.04,3.35-4.23
				"/>
		</g>
	</g>
	<g>
		<g>
			<g>
				<path class="st1" d="M675.92,104.9l6.22-2.49l-0.12,0.17l-0.27-9.46l0.25,0.36l-6.54-2.14l-0.22-0.07l-0.1-0.23l-1.6-3.93
					l-0.09-0.23l0.11-0.24l2.81-6.3l0.14,0.79l-6.85-6.57l0.93,0.15l-6.18,3.07l-0.33,0.16l-0.37-0.13l-3.99-1.39l-0.41-0.14
					l-0.16-0.43l-2.39-6.41l0.98,0.69l-9.41,0.07l1.04-0.73l-2.27,6.45l-0.17,0.47l-0.48,0.2l-3.91,1.66l-0.48,0.2l-0.48-0.22
					l-6.22-2.9l1.37-0.24l-6.66,6.69l0.24-1.39l2.94,6.2l0.23,0.49l-0.21,0.51l-1.61,3.95l-0.21,0.52l-0.52,0.19l-6.48,2.31
					l0.82-1.16l-0.02,9.46l-0.8-1.14l6.43,2.32l0.57,0.21l0.17,0.58c0.39,1.32,0.91,2.61,1.53,3.84l0.27,0.53l-0.25,0.52l-2.95,6.15
					l-0.22-1.29l6.67,6.75l-1.22-0.21l6.04-2.78l0.48-0.22l0.44,0.24c1.35,0.75,2.79,1.36,4.27,1.83l0.47,0.15l0.15,0.44l2.08,5.88
					l-0.82-0.57l9.41,0.04l-0.7,0.5l2.1-5.77l0.12-0.33l0.32-0.09c1.57-0.45,3.09-1.08,4.54-1.85l0.28-0.15l0.26,0.13l5.7,2.78
					l-0.53,0.1l6.76-6.59l-0.05,0.32l-2.67-5.89l-0.03-0.06l0.03-0.05C674.84,107.79,675.45,106.37,675.92,104.9z M675.92,104.9
					c-0.38,1.49-0.92,2.95-1.59,4.35v-0.11l2.94,5.76l0.09,0.17l-0.14,0.15l-6.48,6.86l-0.22,0.23l-0.31-0.14l-5.81-2.54l0.55-0.02
					c-1.49,0.87-3.08,1.56-4.73,2.08l0.44-0.42l-1.96,5.83l-0.17,0.49l-0.54,0.01l-9.41,0.2l-0.6,0.01l-0.22-0.58l-2.23-5.83
					l0.62,0.58c-1.62-0.46-3.19-1.08-4.69-1.87l0.91,0.03l-5.98,2.89l-0.67,0.33l-0.54-0.54l-6.75-6.67l-0.56-0.56l0.34-0.73
					l2.87-6.18l0.02,1.04c-0.71-1.35-1.3-2.77-1.73-4.24l0.74,0.79l-6.44-2.3l-0.8-0.29v-0.86l-0.02-9.46v-0.87l0.82-0.3l6.47-2.34
					l-0.73,0.7l1.62-3.94l0.03,1l-2.92-6.21l-0.37-0.78l0.61-0.61l6.69-6.66l0.6-0.6l0.76,0.36l6.2,2.95l-0.96-0.02l3.93-1.6
					l-0.64,0.67l2.35-6.42l0.27-0.74l0.77,0.01l9.41,0.07l0.75,0.01l0.24,0.69l2.23,6.47l-0.57-0.58l3.95,1.49l-0.7,0.04l6.25-2.92
					l0.53-0.25l0.4,0.4l6.68,6.74l0.35,0.36l-0.21,0.44l-2.98,6.23l0.02-0.47l1.44,3.99l-0.31-0.3l6.45,2.4l0.26,0.1v0.26
					l-0.12,9.46v0.13l-0.12,0.04L675.92,104.9z"/>
				<path class="st1" d="M653.17,82.5c4.16-0.03,8.3,1.63,11.35,4.53c3.07,2.87,5.02,7.01,5.16,11.35
					c0.17,4.32-1.46,8.76-4.52,11.98c-1.54,1.6-3.39,2.91-5.45,3.79c-2.06,0.87-4.3,1.33-6.54,1.35c-2.24-0.01-4.48-0.48-6.54-1.35
					c-2.06-0.87-3.91-2.2-5.45-3.79c-3.07-3.22-4.69-7.67-4.52-11.99c0.14-4.33,2.09-8.48,5.16-11.35
					C644.87,84.14,649.01,82.47,653.17,82.5z M653.17,82.5c-2.08,0.02-4.15,0.45-6.06,1.26c-1.91,0.82-3.62,2.04-5.04,3.52
					c-2.84,3-4.32,7.11-4.15,11.1c0.14,4.01,1.95,7.82,4.79,10.46c2.82,2.67,6.62,4.2,10.46,4.17c3.84,0.03,7.65-1.5,10.47-4.17
					c2.85-2.64,4.65-6.46,4.79-10.47c0.16-3.99-1.32-8.11-4.16-11.1c-1.42-1.48-3.14-2.71-5.05-3.52
					C657.32,82.95,655.25,82.52,653.17,82.5z"/>
			</g>
		</g>
	</g>
	<g>
		<g>
			<path class="st7" d="M744.33,884.41c0,31.67-22.72,58.03-52.75,63.67c-3.9,0.74-7.93,1.12-12.04,1.12
				c-7.55,0-14.8-1.29-21.54-3.67c-25.19-8.88-43.24-32.89-43.24-61.12c0-7.57,1.3-14.84,3.68-21.59
				c4.61-13.03,13.26-24.15,24.46-31.84c10.42-7.16,23.04-11.35,36.64-11.35c22.38,0,42.11,11.35,53.75,28.6
				c4.82,7.15,8.26,15.31,9.91,24.1C743.94,876.24,744.33,880.28,744.33,884.41z"/>
		</g>
		<g>
			<path class="st45" d="M730.14,828.22c4.59,4.13,8.67,8.82,12.13,13.96c5.63,8.35,9.64,17.87,11.57,28.13
				c0.86,4.56,1.32,9.28,1.32,14.1c0,36.96-26.52,67.73-61.57,74.31c-4.55,0.86-9.26,1.31-14.05,1.31c-8.81,0-17.27-1.51-25.14-4.28
				c-8.72-3.07-16.7-7.7-23.62-13.54"/>
		</g>
		<path class="st6" d="M733.29,848.23c-2.92,1.41-6.11,2.36-9.08,2.59c-4.12,0.32-4.95-0.97-12.71-1.2
			c-5.54-0.16-10.68-0.3-16.34,1.53c-8.95,2.91-9.07,7.5-15.83,8.17c-7.96,0.8-14.08-4.91-14.56-5.36
			c-4.53-4.35-3.52-8.1-6.38-13.02c-3.55-6.1-9.85-8.48-15.49-9.96c10.42-7.16,23.04-11.35,36.64-11.35
			C701.92,819.63,721.65,830.98,733.29,848.23z"/>
		<path class="st6" d="M744.33,884.41c0,31.67-22.72,58.03-52.75,63.67c0.35-6.1,2.51-13.49,6.3-19.14
			c3.33-4.95,8.29-9.12,7.15-14.3c-0.74-3.35-3.92-6.62-4.43-7.14c-2.47-2.56-3.71-2.42-5.78-4.6c-2.38-2.5-4.17-6.27-4.09-9.02
			c0.19-6.53,10.98-10.99,16.68-13.28c10.5-4.21,25.16-10.09,35.79-8.27C743.94,876.24,744.33,880.28,744.33,884.41z"/>
		<path class="st6" d="M658,945.53c-25.19-8.88-43.24-32.89-43.24-61.12c0-7.57,1.3-14.84,3.68-21.59c4.29-0.23,8.38,1.08,9.57,3.4
			c1.71,3.35-3.32,7.39-1.28,11.49c1.47,2.95,4.53,1.79,8.43,5.36c3.37,3.09,5.62,8.13,5.1,12.77c-0.44,3.99-2.57,4.47-2.6,7.48
			c-0.04,4.99,5.76,7.26,11.03,12.43C657.61,924.49,662.71,939.27,658,945.53z"/>
		<path class="st45" d="M637.27,948.08c-2.41,3.35-4.82,6.7-7.22,10.05"/>
		<path class="st45" d="M730.14,828.22c-2.54,2.57-5.08,5.14-7.62,7.71"/>
		<path class="st1" d="M642.21,976.72l-37.01-21.37c-3.3-1.91-4.45-6.17-2.54-9.48l0,0c1.91-3.3,6.17-4.45,9.48-2.54l37.01,21.37
			c3.3,1.91,4.45,6.17,2.54,9.48l0,0C649.78,977.48,645.52,978.63,642.21,976.72z"/>
	</g>
	<g>
		<circle class="st30" cx="417.96" cy="259.59" r="5.2"/>
		<circle class="st30" cx="444.7" cy="259.59" r="5.2"/>
		<circle class="st30" cx="472.07" cy="259.59" r="5.2"/>
	</g>
	
		<rect x="80.03" y="589.69" transform="matrix(0.7744 -0.6327 0.6327 0.7744 -351.1916 216.1552)" class="st21" width="94.96" height="21.69"/>
	<line class="st46" x1="146.78" y1="571.76" x2="155.2" y2="581.77"/>
	<line class="st46" x1="121.17" y1="591.76" x2="129.59" y2="601.77"/>
	<line class="st46" x1="93.96" y1="614.66" x2="102.38" y2="624.67"/>
	<g>
		<g>
			<g>
				<path class="st6" d="M1212.12,994.41c-7.16-26.99-13.58-66.75-6.49-113.21c0,0,3.14-53.37,42.41-103.66
					c6.63-8.49,14.26-16.56,23.94-21.27c9.68-4.71,21.79-5.56,30.96,0.09c14.8,9.11,16.25,29.84,14.6,47.14
					c-2.37,24.94-5.45,59.97-41.35,129.3c-8.15,15.73-20.41,38.15-37.17,64.33L1212.12,994.41z"/>
			</g>
			<path class="st47" d="M1274.7,811.28c-7.96,15.38-15.79,32.84-22.72,52.34c-16.96,47.74-22.64,91.3-24,125.21"/>
			<path class="st47" d="M1246.87,824.29c0.51,1.03,0,54.43,0,54.43l43.91-38.08"/>
		</g>
		<g>
			<path class="st9" d="M1264.48,935.16c1.78-3.21,6.71-11.72,17.12-26.91c11.82-17.25,29.13-40.73,52.9-67.62
				c6.83-7.2,13.26-12.14,17.87-15.32c8.25-5.68,28.45-19.58,51.83-16.6c4.31,0.55,7.97,1.06,11.94,3.54
				c12.29,7.69,14.36,25.54,13.86,31.85c-3.08,39.02-44.98,78.22-65.19,94.93c-21.52,17.79-56.95,42.81-108.1,61.68
				c-6.41-0.43-12.82-0.85-19.23-1.28C1245.73,971.73,1256.14,950.14,1264.48,935.16z"/>
		</g>
	</g>
	<line class="st46" x1="100.84" y1="609.78" x2="106.14" y2="616.08"/>
	<line class="st46" x1="105.47" y1="605.89" x2="110.77" y2="612.19"/>
	<line class="st46" x1="109.85" y1="602.21" x2="115.15" y2="608.51"/>
	<line class="st46" x1="114.51" y1="598.28" x2="119.82" y2="604.58"/>
	<line class="st46" x1="127.82" y1="587.57" x2="133.12" y2="593.87"/>
	<ellipse class="st35" cx="1116.78" cy="998.2" rx="142.72" ry="15.42"/>
	<line class="st46" x1="132.44" y1="583.68" x2="137.74" y2="589.98"/>
	<line class="st46" x1="136.82" y1="579.99" x2="142.12" y2="586.3"/>
	<g>
		<g>
			<path class="st48" d="M1082.82,996.57c-0.19,0.31-0.61,0.34-0.97,0.34c-4.68,0.02-9.35,0.04-14.03,0.06
				c-14.19-0.04-28.38-0.08-42.57-0.12c0.06-2.12,0.51-5.01,2.59-6.8c1.23-1.05,2.58-1.27,3.12-1.44c2.39-0.79,4.79-1.58,7.16-2.45
				c3.38-1.23,6.7-2.63,9.8-4.45c3.02-1.77,6.94-4.54,10.45-10.42c0.53-0.91,1.06-1.89,1.58-2.95l10.89,0.53l6.92,0.33
				c0.4,3.45,0.9,6.88,1.5,10.3c0.94,5.45,2.14,10.85,3.57,16.19C1082.91,995.98,1082.99,996.32,1082.82,996.57z"/>
		</g>
	</g>
	<line class="st46" x1="141.49" y1="576.07" x2="146.79" y2="582.37"/>
	<g>
		<g>
			<g>
				<path class="st48" d="M1192.3,967.01c1.86,8.8,4.37,17.47,7.5,25.91c0.11,0.28,0.21,0.61,0.07,0.88
					c-0.17,0.32-0.58,0.39-0.94,0.42c-4.65,0.45-40.65,3.52-51.93,4.38c-2.13,0.16-4.25,0.32-6.37,0.47
					c0.51-0.95,1.31-2.46,2.36-4.42c0.56-1.04,0.87-1.66,1.52-2.27c0.84-0.79,1.92-1.27,2.97-1.73c5.6-2.46,11.29-4.86,16.25-8.43
					c3.27-2.36,7.63-6.16,10.74-14.42"/>
			</g>
		</g>
		<path class="st49" d="M1194.92,978.03c-2.81,0.53-6.88,1.59-11.29,3.98c-4.59,2.49-4.16,3.51-8.2,5.19c0,0-6.8,2.8-14.31,2.05
			c-0.26-0.03-0.47-0.05-0.66-0.08c-2.28-0.31-4.32-0.89-6.11-1.57c2.3-0.98,5.48-2.56,8.91-5.05c1.23-0.89,2.84-2.06,4.48-3.75
			c1.76-1.81,4.56-5.26,6.31-10.92c1.56-0.09,3.13-0.18,4.7-0.27c2.25-0.12,4.49-0.23,6.7-0.32c2.28-0.1,4.56-0.2,6.84-0.3
			c0.48,1.97,0.96,3.96,1.43,5.96C1194.13,974.66,1194.53,976.35,1194.92,978.03z"/>
	</g>
	<path class="st49" d="M1079.26,979.5c-2.84,0.32-6.98,1.1-11.54,3.17c-4.75,2.16-4.4,3.2-8.55,4.59c0,0-6.99,2.31-14.42,1.02
		c-0.25-0.04-0.47-0.09-0.65-0.12c-2.25-0.47-4.25-1.2-5.98-2c3.38-1.23,6.7-2.63,9.8-4.45c3.02-1.77,6.94-4.54,10.45-10.42
		c4.16-0.81,8.31-1.61,12.47-2.42l6.92,0.33C1078.16,972.65,1078.66,976.08,1079.26,979.5z"/>
	<g>
		<g>
			<line class="st50" x1="1466.36" y1="293.21" x2="1469.72" y2="307.78"/>
			<circle class="st51" cx="1462.82" cy="297.81" r="3.27"/>
			<circle class="st51" cx="1471.34" cy="295.42" r="3.27"/>
		</g>
		
			<ellipse transform="matrix(0.9744 -0.2248 0.2248 0.9744 -37.7452 340.4922)" class="st9" cx="1476.38" cy="336" rx="30.99" ry="29.24"/>
		<path class="st9" d="M1541.77,350.99l-117.26,27.05c-0.73-5.21-1.14-13.52,2.47-21.67c7.24-16.32,25.53-20.48,50.59-26.18
			c21.89-4.98,33.53-7.42,45.78-0.33C1533.39,335.68,1538.96,345.08,1541.77,350.99z"/>
		<circle class="st52" cx="1454.35" cy="371.15" r="11.84"/>
		<circle class="st52" cx="1510.77" cy="358.14" r="11.84"/>
		<circle class="st4" cx="1454.35" cy="371.15" r="3.67"/>
		<circle class="st4" cx="1510.85" cy="358.47" r="3.67"/>
		<path class="st4" d="M1500.33,329.18l-48.48,11.18c-2.9-12.59,5.6-25.3,18.98-28.39C1484.22,308.88,1497.42,316.59,1500.33,329.18
			z"/>
		
			<rect x="1470.61" y="308.58" transform="matrix(0.9744 -0.2248 0.2248 0.9744 -34.7389 339.3781)" class="st9" width="4.76" height="27.32"/>
	</g>
	<g>
		<g>
			<g>
				<path class="st53" d="M1091.04,645.04c14.62-16.98,21.43-24.95,24.59-28.7c0.29-0.35,1.18-1.4,2.39-2.81
					c3.65-4.25,9.47-10.55,9.47-10.55c0.75-0.78,1.5-1.59,2.26-2.43c1.14-1.26,2.21-2.51,3.21-3.73c-0.41-0.52-0.84-1.05-1.29-1.57
					c-1.46-1.72-2.94-3.23-4.38-4.56c1.97-1.8,3.95-3.6,5.92-5.41c1.83-1.67,3.66-3.34,5.48-5.01c3.67-3.36,7.35-6.71,11.02-10.07
					c5.8,5.14,9.43,10.29,11.6,13.91c2.91,4.85,7.25,12.26,5.75,20.05c-0.41,2.12-1.42,6.28-7.95,13.81
					c-7.42,8.56-15.24,13.8-19.01,16.1c-0.72,0.44-1.29,0.77-1.72,1.02c-5.33,3.08-16.23,9.08-40.12,21.02
					C1095.86,652.41,1093.45,648.73,1091.04,645.04z"/>
			</g>
			<g>
				<g>
					<path class="st54" d="M1068.14,671.41l40.59,45.67c3.97,4.47,10.33,5.93,15.86,3.65l68.22-28.21c5.31-2.2,8.75-7.41,8.67-13.15
						l-0.82-62.75"/>
					<path class="st1" d="M1207.35,616.19l-146.62,60.64c-2.27,0.94-4.89-0.15-5.82-2.42l-0.72-1.75c-0.94-2.27,0.15-4.89,2.42-5.82
						l146.62-60.64c2.27-0.94,4.89,0.15,5.82,2.42l0.72,1.75C1210.7,612.64,1209.62,615.26,1207.35,616.19z"/>
					<line class="st55" x1="1103.63" y1="656.73" x2="1138.5" y2="714.97"/>
					<line class="st55" x1="1167.39" y1="630.51" x2="1182.17" y2="696.76"/>
					<line class="st55" x1="1135.23" y1="646.03" x2="1160.67" y2="707.55"/>
					<line class="st55" x1="1081.88" y1="686.87" x2="1201.28" y2="637.49"/>
					<line class="st55" x1="1097.2" y1="704.55" x2="1201.08" y2="661.58"/>
				</g>
				<line class="st55" x1="1114.92" y1="646.55" x2="1109.18" y2="611.85"/>
				<line class="st55" x1="1153.18" y1="629.64" x2="1134.07" y2="604.29"/>
				<path class="st1" d="M1112.65,628.53l-0.63,0.09c-2.18,0.3-4.21-1.23-4.51-3.41l-2.41-17.25c-0.3-2.18,1.23-4.21,3.41-4.51
					l0.63-0.09c2.18-0.3,4.21,1.23,4.51,3.41l2.41,17.25C1116.37,626.19,1114.83,628.22,1112.65,628.53z"/>
				<path class="st1" d="M1143.11,615.76l-0.51,0.38c-1.76,1.32-4.28,0.97-5.6-0.79l-10.48-13.91c-1.32-1.76-0.97-4.28,0.79-5.6
					l0.51-0.38c1.76-1.32,4.28-0.97,5.6,0.79l10.48,13.91C1145.22,611.91,1144.87,614.43,1143.11,615.76z"/>
			</g>
			<path class="st52" d="M1026.81,435.67c-1.12-0.8-4.28-3.26-4.72-7.11c-0.51-4.51,3.07-7.95,5.28-10.07
				c8.72-8.39,21.84-8.18,26.63-7.88C1044.93,418.97,1035.87,427.32,1026.81,435.67z"/>
			<path class="st7" d="M1075.17,514.72c-1.85,2.14-6.94,8.04-6.31,15.14c0.35,4.01,2.4,6.89,3.4,8.24
				c5.79,7.85,24.13,29.34,49.52,57.61c10.81-9.87,21.63-19.75,32.44-29.62c-14.79-15.97-29.57-31.94-44.36-47.91
				c-2.37-2.56-7.27-7.26-13.84-9.65c-3.58-1.29-5.96-1.29-6.97-1.25c-3.19,0.14-5.52,1.2-6.68,1.75
				C1081.68,509.34,1078.47,510.89,1075.17,514.72z"/>
			<g>
				<path class="st31" d="M1138.95,688.45c-1.76-6.37-3.48-12.8-5.18-19.31c-0.61-2.32-1.2-4.64-1.79-6.95
					c-18.69,2.17-36.97,5.2-55.25,8.24c-18.37,3.05-36.84,5.49-55.25,8.24c-3.67,49.02-4.01,108.46,4.38,175.21
					c5.69,45.25,14.38,85.84,24,121.14c5.77,0.16,12.49-0.08,19.92-1.14c4.77-0.69,9.13-1.62,13.04-2.64
					c-2.13-41.5-4.27-83-6.4-124.5c3.23-38.38,6.47-76.77,9.7-115.15c7.56-7.1,15.82-14.41,24.82-21.78
					C1120.55,701.88,1129.95,694.79,1138.95,688.45z"/>
			</g>
			<path class="st49" d="M1048.69,421.02c-6.95-0.34-15.02,3.75-19.65,9.38c-3.02,3.67-4.66,8.11-6.95,14.28
				c-0.73,1.97-2.09,5.65-2.94,9.57c-0.59,2.74-3.79,18.79,1.78,25.36c8.69,10.25,45.66,5.7,52.99-16.13
				C1079.88,445.75,1064.53,421.78,1048.69,421.02z"/>
			<g>
				<path class="st52" d="M1030.84,429.02c1.86,6.97,17.32,3.21,22.81,12.9c1.98,3.49,2.1,8.55,2.34,18.65
					c0.08,3.56-0.02,6.51-0.13,8.56c1.85-0.41,7.51-1.59,9.65-1.09c0.25,0.06,0.87,0.2,0.96,0.58c0.14,0.54-0.89,1.19-1.35,1.54
					c-2.03,1.58-2.48,4.82-2.4,6.54c0.19,4.47,4.2,7.33,5,7.9c0.06,0.04,0.11,0.07,0.14,0.1c3.46,2.4,7.13,2.37,10.02,2.35
					c1.49-0.01,5.38-0.09,9.67-2.12c7.57-3.58,10.81-10.6,12.54-14.36c0.7-1.52,2.49-5.41,3.03-10.43
					c1.45-13.54-6.79-24.21-9.19-27.11l0.26,0.18c-1.36-5.33-5.13-9.76-9.4-13.23c-9.4-7.63-19.29-9.01-22.7-9.27
					c-4.32-0.34-15.22-1.19-23.86,6.02C1036.41,418.23,1029.5,423.98,1030.84,429.02z"/>
			</g>
			
				<ellipse transform="matrix(0.9565 -0.2918 0.2918 0.9565 -90.6171 329.5421)" class="st49" cx="1059.48" cy="468.57" rx="8.07" ry="6.39"/>
			<path class="st52" d="M1095.47,428.4c5.3-5.53,14.03-3.85,14.77-3.69c1.21,0.25,8.53,1.78,11.69,8.62
				c2.71,5.86,1.07,12.8-3.08,17.23c-5.11,5.46-13.61,6.64-19.69,3.08C1090.33,448.46,1089.28,434.86,1095.47,428.4z"/>
			<path class="st49" d="M1070.76,503.58c-3.81,1.02-8.36,1.96-13.54,2.46c-6.13,0.59-11.56,0.43-16,0
				c0.69-5.66,1.38-11.32,2.07-16.97c0.23-1.89,0.46-3.77,0.69-5.66c0.1-0.87,0.21-1.74,0.32-2.6c6.15-1.43,12.31-2.87,18.46-4.3
				C1065.43,485.52,1068.09,494.54,1070.76,503.58z"/>
			<g>
				<path class="st56" d="M999.81,554.15c-1.6,7.05-3.39,13.73-5.3,20.03c4.6,7.79,9.2,15.58,13.8,23.37
					c1.32,13.68,2.57,27.52,3.74,41.5c1.68,20.12,3.15,39.98,4.43,59.55c18.5-3.02,39.69-7.67,62.64-14.96
					c21.67-6.87,40.67-14.74,56.85-22.47c-13.25-27.95-20.8-52.38-25.28-70.43c-6.05-24.34-8.45-44.88-9.54-54.48
					c-1.04-9.16-1.77-18-2.24-26.49c-3.74-1.63-7.5-3.25-11.26-4.88c-6.09-2.62-12.17-5.22-18.22-7.78
					c-9.91,0.47-19.81,0.94-29.72,1.42c-3.11,1.36-6.37,2.7-9.78,3.99c-8.27,3.13-16.16,5.5-23.5,7.3
					C1005.45,523.2,1003.46,538.13,999.81,554.15z"/>
			</g>
			<g>
				<path class="st49" d="M909.5,475.06c12.6,20.72,18.54,30.39,21.35,34.89c0.26,0.42,1.05,1.68,2.1,3.4
					c3.16,5.18,7.71,13.27,7.71,13.27c0.56,1.03,1.14,2.08,1.75,3.14c0.92,1.59,1.85,3.11,2.77,4.55c0.33-0.12,0.67-0.24,1.01-0.38
					c0.56-0.22,0.96-0.39,1.04-0.42c0.58-0.24,3.26-1.3,10.38-4.08c0.01,0.04,2.92,8.79,2.93,8.83c1.01,3.05,2.02,6.1,3.03,9.15
					c1.45,4.36,2.89,8.72,4.34,13.08c-7.62,4.2-14.41,6.22-19.1,7.27c-6.26,1.4-15.2,3.29-22.57-0.76
					c-2.04-1.13-5.99-3.55-11.57-12.79c-6.34-10.5-9.12-20.3-10.24-24.95c-0.21-0.89-0.36-1.58-0.48-2.12
					c-1.4-6.51-3.93-19.74-8.26-48.33C900.3,477.57,904.9,476.32,909.5,475.06z"/>
			</g>
			<path class="st56" d="M1041.05,516.06c-0.83-1.98-3.47-8.3-9.47-11.11c-3.61-1.69-7.16-1.52-9.67-1.22
				c-9.61,1.17-34.87,8.09-68.06,18.98c5.79,15.57,11.57,31.15,17.36,46.72c7.64-2.15,14.03-4.34,18.89-6.13
				c12.92-4.76,11.13-5.3,30.13-13.35c0.54-0.23,5.48-2.29,11.29-6.14c3.66-2.43,6.34-4.68,8.2-7.51c1.89-2.87,2.55-5.41,2.71-6.05
				c0.17-0.69,0.29-1.34,0.37-1.95c0,0,0.23-1.7,0.14-3.66C1042.76,521,1041.24,516.6,1041.05,516.06z"/>
			<g>
				<path class="st49" d="M909.57,475.1c-0.9-2.55-1.12-4.63-1.14-6.1c-0.02-1.42,0.15-1.97,0.02-3.55c-0.1-1.17-0.25-1.53-1.06-4.8
					c-1.16-4.67-1.36-5.97-1.43-6.48c-0.09-0.65-0.2-1.3-0.29-1.95c-0.2-1.37-0.29-1.88-0.48-2.66c-0.16-0.65-0.38-1.31-0.81-1.82
					c-0.07-0.08-0.97-0.97-1.75-0.67c-0.4,0.15-0.59,0.54-0.77,0.89c-0.38,0.76-0.39,1.48-0.39,1.64c-0.01,1.38-0.16,2.75-0.1,4.13
					c0.05,1.08,0.04,2.64-0.24,4.57c-0.36-0.71-0.72-1.42-1.08-2.14c-0.32-0.56-7.38-12.81-10.52-17.27
					c-0.61-0.87-2.02-2.77-3.37-2.54c-0.57,0.1-0.99,0.54-1.02,0.57c-0.67,0.73-0.59,1.82-0.54,2.32c0.29,3.09,3.48,7.92,4.54,9.58
					c0.92,1.44,2.18,3.52,3.54,6.17c-0.8-1.2-2.88-4.23-4.98-5.86c-0.36-0.28-0.91-0.67-1.6-0.62c-0.95,0.06-1.85,0.91-2.11,1.83
					c-0.23,0.83,0.1,1.55,1.14,3.41c0.65,1.16,1.52,2.66,2.61,4.4c-0.68-0.86-1.29-1.57-1.77-2.1c-1.18-1.29-1.74-1.72-2.45-1.98
					c-0.37-0.13-0.77-0.27-1.26-0.16c-0.81,0.18-1.43,0.92-1.61,1.66c-0.19,0.81,0.17,1.52,0.59,2.27c0.65,1.15,1.63,2.73,3.06,4.56
					c-0.03,0.05-0.05,0.11-0.08,0.16c-0.53-0.65-1.02-1.16-1.39-1.54c-1.1-1.09-1.52-1.23-1.77-1.28c-0.17-0.04-0.8-0.16-1.44,0.18
					c-0.87,0.46-1.08,1.43-1.13,1.64c-0.21,0.98,0.17,1.83,0.34,2.21c3.93,8.51,7.14,11.34,7.14,11.34
					c0.78,0.69,2.81,2.38,5.83,3.78c1.71,0.8,3.25,1.27,4.43,1.57C900.69,478.7,905.13,476.9,909.57,475.1z"/>
			</g>
			<g>
				<path class="st52" d="M1094.49,434.23c-0.45-2.29-0.31-4.74,0.53-6.98c0.83-2.26,2.54-4.15,4.62-5.35
					c2.1-1.19,4.54-1.66,6.91-1.53c1.19,0.09,2.36,0.32,3.48,0.67c1.12,0.39,2.18,0.89,3.17,1.52c-2.11-1.01-4.38-1.62-6.68-1.67
					c-2.28-0.02-4.6,0.43-6.56,1.6c-1.99,1.09-3.58,2.85-4.47,4.96c-0.46,1.05-0.75,2.17-0.9,3.31
					C1094.42,431.9,1094.4,433.07,1094.49,434.23z"/>
			</g>
			<g>
				<path class="st52" d="M1024.02,417.34c2.6-2.54,5.63-4.65,8.94-6.22c3.32-1.53,6.88-2.55,10.52-3
					c3.64-0.42,7.33-0.29,10.93,0.34c3.6,0.61,7.11,1.7,10.41,3.22c-1.7-0.63-3.43-1.19-5.18-1.63c-1.75-0.46-3.52-0.83-5.31-1.07
					c-1.78-0.26-3.58-0.4-5.38-0.46c-1.8-0.01-3.6,0.05-5.38,0.28c-3.58,0.39-7.06,1.39-10.38,2.8
					C1029.87,413.04,1026.8,415.01,1024.02,417.34z"/>
			</g>
			<path class="st57" d="M1052.84,479.87c-1.1,1.94-3.95,6.35-9.53,9.19c-0.01,0.01-0.01,0.01-0.02,0.01
				c0.23-1.89,0.46-3.77,0.69-5.66C1047.5,482.39,1050.47,481.1,1052.84,479.87z"/>
			<path class="st37" d="M1196.91,967.73c-5.57,1.23-11.81,2.32-18.64,3.06c-7.34,0.8-14.11,1.07-20.17,1.02
				c-21.22-56.7-41.04-118.02-58.21-183.83c-4.98-19.07-9.56-37.89-13.79-56.43c5.91-5.56,12.21-11.19,18.89-16.85
				c11.62-9.84,23.02-18.55,33.95-26.26c3.71,15.82,7.42,31.64,11.14,47.45c5.8,24.68,10.36,43.96,11.17,47.43
				C1166.77,806.72,1176.84,855.42,1196.91,967.73z"/>
			<path class="st4" d="M1019.92,464.89c0.84,0.91,2.29,2.25,4.42,3.3c1.91,0.94,3.66,1.29,4.83,1.44c-1.35,2.08-3.75,3.09-5.8,2.55
				C1020.7,471.47,1018.84,468.19,1019.92,464.89z"/>
		</g>
		<g>
			<path class="st4" d="M1020.29,515.63c1.22,2.71,2,5.66,2.21,8.67c0.24,3.01-0.06,6.07-0.83,9c-0.82,2.91-2.05,5.72-3.76,8.21
				c-1.66,2.51-3.75,4.73-6.11,6.54c2.04-2.17,3.82-4.53,5.29-7.05c0.73-1.26,1.41-2.56,1.96-3.91c0.59-1.33,1.03-2.72,1.42-4.11
				C1022,527.37,1021.83,521.37,1020.29,515.63z"/>
		</g>
		<g>
			<path class="st58" d="M1033.41,701.68c-0.98,11.08-1.71,22.18-2.19,33.29c-0.52,11.11-0.81,22.22-0.81,33.34
				c-0.01,22.23,0.78,44.47,2.77,66.61c1.81,22.16,4.75,44.21,8.56,66.11c1.9,10.95,4.05,21.86,6.44,32.72
				c2.36,10.87,4.96,21.68,7.8,32.44c-3.07-10.69-5.91-21.46-8.5-32.28c-2.54-10.84-4.81-21.74-6.85-32.68
				c-4.04-21.9-6.97-44-8.9-66.19c-0.94-11.1-1.61-22.22-2-33.34c-0.4-11.13-0.59-22.26-0.43-33.4c0.14-11.13,0.55-22.26,1.22-33.37
				C1031.22,723.82,1032.19,712.73,1033.41,701.68z"/>
		</g>
	</g>
	<g class="st59">
		<path class="st2" d="M222.36,707.05c2.51-1.56,5.11-2.93,7.73-4.25c2.62-1.32,5.28-2.54,7.95-3.74c2.69-1.16,5.38-2.3,8.13-3.33
			c2.74-1.04,5.51-2.02,8.35-2.82c-2.51,1.56-5.1,2.94-7.72,4.25c-2.62,1.32-5.28,2.54-7.95,3.74c-2.69,1.16-5.38,2.3-8.13,3.33
			C227.97,705.27,225.2,706.25,222.36,707.05z"/>
	</g>
	<path class="st60" d="M1023.98,1057.09"/>
	<path class="st47" d="M1253.29,993.69c17.73-23.9,39.39-49.98,65.66-76.51c19.1-19.29,37.89-36.06,55.66-50.55"/>
	<g>
		<g>
			<path class="st1" d="M1303.56,136.26l-1.71,6.41l-1.61,6.24c-1.06,4.1-2.13,8.07-3.29,12.03l-1.06-1.14
				c4.13-1.04,8.28-1.99,12.42-2.97c4.15-0.93,8.3-1.9,12.46-2.77l-0.46,1.49c-2.78-3.05-5.47-6.16-8.22-9.38l-4.18-4.9
				L1303.56,136.26z M1303.56,136.26l4.36,4.33l4.52,4.43c3.05,3.01,6.16,6.13,9.19,9.3l1.06,1.11l-1.51,0.38
				c-4.13,1.04-8.28,1.98-12.42,2.97c-4.15,0.93-8.3,1.89-12.46,2.77l-1.52,0.32l0.46-1.46c1.33-4.18,2.76-8.34,4.19-12.38
				l2.12-5.97L1303.56,136.26z"/>
		</g>
	</g>
	<path class="st7" d="M550.79,352.8h-81.54c-4,0-7.27-3.27-7.27-7.27v-8.87c0-4,3.27-7.27,7.27-7.27h81.54c4,0,7.27,3.27,7.27,7.27
		v8.87C558.06,349.52,554.79,352.8,550.79,352.8z"/>
	<g>
		
			<rect x="506.48" y="662.42" transform="matrix(0.1715 -0.9852 0.9852 0.1715 -263.738 1146.2365)" class="st31" width="86.3" height="135"/>
		<path class="st4" d="M542.19,772.44c-8.16-5.68-19.96-12.44-35.23-16.9c-7.62-2.22-14.67-3.46-20.82-4.11
			c4.84-26.89,9.69-53.78,14.53-80.67c8.79,0.09,23.17,1.48,38.54,9.16c7.09,3.54,12.76,7.61,17.12,11.3
			C551.61,718.29,546.9,745.37,542.19,772.44z"/>
		<path class="st4" d="M542.19,772.44c9.6-2.59,22.99-4.97,38.87-4c7.93,0.48,14.98,1.71,20.98,3.16
			c4.53-26.94,9.06-53.89,13.58-80.83c-8.3-2.89-22.31-6.44-39.36-4.41c-7.87,0.94-14.58,2.85-19.93,4.85
			C551.61,718.29,546.9,745.37,542.19,772.44z"/>
		<path class="st0" d="M542.71,772.53L542.71,772.53c-1.3-0.23-2.17-1.47-1.95-2.77l13.5-77.55c0.23-1.3,1.47-2.17,2.77-1.95l0,0
			c1.3,0.23,2.17,1.47,1.95,2.77l-13.5,77.55C545.25,771.88,544,772.76,542.71,772.53z"/>
		<path class="st0" d="M508.82,680.11L505,702.08c5.34-0.09,13.5,0.42,22.75,3.72c7.13,2.55,12.6,5.93,16.37,8.7
			c1.26-7.23,2.52-14.45,3.77-21.68c-4.14-2.96-10.48-6.8-18.91-9.49C520.9,680.74,513.8,680.14,508.82,680.11z"/>
	</g>
</g>
</svg>
