<?xml version="1.0" encoding="utf-8"?>
<!-- Generator: Adobe Illustrator 26.0.0, SVG Export Plug-In . SVG Version: 6.00 Build 0)  -->
<svg version="1.1" id="Layer_1" xmlns="http://www.w3.org/2000/svg" xmlns:xlink="http://www.w3.org/1999/xlink" x="0px" y="0px"
	 viewBox="0 0 425.2 425.2" style="enable-background:new 0 0 425.2 425.2;" xml:space="preserve">
<style type="text/css">
	.st0{fill:url(#SVGID_00000174578768377422814500000013834931014191285926_);}
	.st1{fill:url(#SVGID_00000044172252770868678170000001630253746739168917_);}
	.st2{fill:#F58220;}
	.st3{fill:url(#SVGID_00000137843383843525017110000002515929432496715423_);}
	.st4{fill:url(#SVGID_00000121274433687765856700000011265376913614049953_);}
	.st5{fill:url(#SVGID_00000052788200700666431750000005670797456317085594_);}
	.st6{fill:url(#SVGID_00000135651615912767442550000015028233248657840020_);}
</style>
<g>
	<defs>
		<rect id="SVGID_1_" width="425.2" height="425.2"/>
	</defs>
	<use xlink:href="#SVGID_1_"  style="display:none;overflow:visible;fill:#F1F2F2;"/>
	<clipPath id="SVGID_00000108282178246368836060000011749777201056656007_">
		<use xlink:href="#SVGID_1_"  style="display:none;overflow:visible;"/>
	</clipPath>
</g>
<g>
	
		<linearGradient id="SVGID_00000033342019742446689620000013038419289190826671_" gradientUnits="userSpaceOnUse" x1="-652.4348" y1="839.0209" x2="-652.4348" y2="723.593" gradientTransform="matrix(0.9895 -0.145 0.145 0.9895 739.1156 -713.7636)">
		<stop  offset="0" style="stop-color:#A7A9AC"/>
		<stop  offset="0.1242" style="stop-color:#BBBDBF"/>
		<stop  offset="0.3405" style="stop-color:#DADCDD"/>
		<stop  offset="0.4545" style="stop-color:#E6E7E8"/>
		<stop  offset="0.5716" style="stop-color:#E2E3E5"/>
		<stop  offset="0.7019" style="stop-color:#D7D9DA"/>
		<stop  offset="0.8387" style="stop-color:#C5C7C9"/>
		<stop  offset="0.9791" style="stop-color:#ABADB0"/>
		<stop  offset="1" style="stop-color:#A7A9AC"/>
	</linearGradient>
	<path style="fill:url(#SVGID_00000033342019742446689620000013038419289190826671_);" d="M347.2,177.6l-2.8-19.1
		c0,0-103.9-41-133.3-56.5c-3.3-1.8-9.7-5.5-14.3-4.9c-5.1,0.7-10.2,6.6-13,9.4C161.2,129.2,76,195.5,76,195.5l3.1,21.4L347.2,177.6
		z"/>
	
		<linearGradient id="SVGID_00000169518925705988865090000012959025937447914682_" gradientUnits="userSpaceOnUse" x1="-652.4331" y1="985.5479" x2="-652.4331" y2="807.2056" gradientTransform="matrix(0.9895 -0.145 0.145 0.9895 739.1156 -713.7636)">
		<stop  offset="0" style="stop-color:#A7A9AC"/>
		<stop  offset="3.836042e-02" style="stop-color:#ABADB0"/>
		<stop  offset="0.2957" style="stop-color:#C5C7C9"/>
		<stop  offset="0.5465" style="stop-color:#D7D9DA"/>
		<stop  offset="0.7855" style="stop-color:#E2E3E5"/>
		<stop  offset="1" style="stop-color:#E6E7E8"/>
	</linearGradient>
	<path style="fill:url(#SVGID_00000169518925705988865090000012959025937447914682_);" d="M369,326.4c0.8,5.5-3,10.7-8.6,11.5
		l-247.9,36.3c-5.5,0.8-10.7-3-11.5-8.6L78.1,209.2c-0.8-5.5,3-10.7,8.6-11.5l247.9-36.3c5.5-0.8,10.7,3,11.5,8.6L369,326.4z"/>
	
		<rect x="90.7" y="68.7" transform="matrix(0.9894 -0.145 0.145 0.9894 -26.2361 32.1684)" class="st2" width="233.7" height="254.8"/>
	<g>
		
			<linearGradient id="SVGID_00000060725314198941598690000001873390919860558014_" gradientUnits="userSpaceOnUse" x1="-652.4326" y1="888.699" x2="-652.4326" y2="719.5356" gradientTransform="matrix(0.9895 -0.145 0.145 0.9895 739.1156 -713.7636)">
			<stop  offset="0" style="stop-color:#808285"/>
			<stop  offset="2.011043e-02" style="stop-color:#858789"/>
			<stop  offset="0.1846" style="stop-color:#A7A9AB"/>
			<stop  offset="0.3503" style="stop-color:#C5C7C9"/>
			<stop  offset="0.5152" style="stop-color:#DDDEDF"/>
			<stop  offset="0.679" style="stop-color:#EEEFEF"/>
			<stop  offset="0.8412" style="stop-color:#F9F9F9"/>
			<stop  offset="1" style="stop-color:#FFFFFF"/>
		</linearGradient>
		<path style="fill:url(#SVGID_00000060725314198941598690000001873390919860558014_);" d="M223.8,137.3l0.8-10l23-3.4l-4.1,64.3
			c-0.2,4.1-0.3,6.7-0.1,8c0.2,1.3,0.7,2.3,1.5,3c0.8,0.7,1.6,0.9,2.6,0.8c3.1-0.5,6.9-3.1,11.2-7.9c4.4-4.8,7.9-11,10.5-18.6
			c2.7-7.6,3.4-15.6,2.1-23.9c-1-7-3.3-13.3-6.8-19.1c-3.5-5.8-8.1-10.5-13.8-14.3c-5.7-3.8-12.3-6.4-20.1-7.9
			c-7.7-1.5-16.2-1.5-25.5-0.2c-9.5,1.4-18,3.9-25.5,7.5c-7.5,3.6-14,8.2-19.2,13.7c-5.3,5.5-9.5,11.9-12.5,19.3
			c-2.7,6.4-4.4,13.4-5.2,20.9c-0.8,7.5-0.7,14.9,0.4,22.4c1.5,10,4.8,18.8,10,26.5c5.2,7.7,12,13.8,20.4,18.3
			c8.4,4.5,18.1,7.1,29.2,7.9c11.1,0.8,23.3-0.5,36.6-3.9c10.5-2.9,19.3-6.6,26.2-11.3c6.9-4.7,12.5-10.7,16.7-17.9l18.5-2.7
			c-2.1,6.7-5.2,12.8-9.4,18.4c-4.1,5.6-9.2,10.5-15.2,14.8c-6,4.3-12.9,7.9-20.7,10.8c-7.8,2.9-16.5,5.1-26,6.5
			c-14.3,2.1-27.4,2.1-39.4,0c-12-2.1-22.4-6.1-31.2-12c-8.8-5.9-16-13.5-21.4-22.6c-5.4-9.2-9-19.7-10.8-31.5
			c-1.8-12.4-1.4-24.2,1.1-35.5c2.5-11.3,7.1-21.5,13.7-30.6c6.6-9.1,15.1-16.6,25.7-22.7c10.5-6.1,22.5-10.1,36-12.1
			c11-1.6,21.4-1.5,31,0.4c9.7,1.9,18.2,5.3,25.7,10.4c7.4,5.1,13.5,11.5,18.2,19.3c4.7,7.8,7.7,16.6,9.2,26.6
			c1.1,7.8,0.9,15.6-0.8,23.5c-1.7,7.9-4.7,15.2-9,21.9c-4.3,6.7-9.7,12.3-16.3,16.8c-6.5,4.5-13.8,7.3-22,8.5
			c-4.7,0.7-8.5,0.4-11.3-0.8c-2.8-1.2-5-3.5-6.3-6.9c-4.3,5.7-9.7,9.7-16,12c-6.4,2.3-12.8,2.6-19.3,1c-6.5-1.6-12.1-5.1-16.8-10.6
			c-4.7-5.4-7.7-12.5-8.9-21.3c-1.3-9.1-0.7-18.4,1.9-27.8c2.6-9.4,7.1-17.4,13.5-24.1c6.4-6.7,14.2-10.7,23.3-12
			C209.5,127.4,217.7,130.2,223.8,137.3z M182.8,189.4c1,7,3.3,12.1,6.7,15.4c3.4,3.3,7.5,4.6,12.2,3.9c5.5-0.8,9.9-3.7,13.5-8.6
			c3.5-5,5.9-10.9,7-17.9c1.2-7,1.3-13.5,0.4-19.8c-0.5-3.1-1.2-5.8-2.3-8.1c-1.1-2.4-2.5-4.4-4.2-6c-1.7-1.7-3.6-2.8-5.8-3.5
			c-2.1-0.7-4.5-0.8-7-0.4c-5.1,0.7-9.4,3.4-12.9,8c-3.5,4.6-5.9,10.2-7.2,16.9C181.9,175.9,181.8,182.6,182.8,189.4z"/>
	</g>
	<g>
		
			<linearGradient id="SVGID_00000029009899797216748190000005882647237007939990_" gradientUnits="userSpaceOnUse" x1="-654.215" y1="895.9018" x2="-517.0217" y2="895.9018" gradientTransform="matrix(0.9895 -0.145 0.145 0.9895 739.1156 -713.7636)">
			<stop  offset="0" style="stop-color:#939598"/>
			<stop  offset="6.520812e-02" style="stop-color:#A0A2A4"/>
			<stop  offset="0.2566" style="stop-color:#C2C4C6"/>
			<stop  offset="0.4293" style="stop-color:#DCDDDE"/>
			<stop  offset="0.5759" style="stop-color:#EBECED"/>
			<stop  offset="0.6788" style="stop-color:#F1F2F2"/>
			<stop  offset="0.7788" style="stop-color:#EDEEEE"/>
			<stop  offset="0.8931" style="stop-color:#E1E2E4"/>
			<stop  offset="1" style="stop-color:#D1D3D4"/>
		</linearGradient>
		<path style="fill:url(#SVGID_00000029009899797216748190000005882647237007939990_);" d="M368.8,325.5L346,169.9
			c-0.8-5.5-5.9-9.3-11.5-8.5l-11.2,1.6c0,0-59.8,62.4-79.2,90.3c-2.2,3.2-6.9,9.2-6.3,13.5c0.7,4.7,7.4,9.2,10.6,11.7
			c25.9,20.1,97.9,60.4,97.9,60.4l13.9-2C365.8,336.1,369.6,331,368.8,325.5z"/>
		
			<linearGradient id="SVGID_00000140716413432832040670000001802731875390518966_" gradientUnits="userSpaceOnUse" x1="-5371.7295" y1="895.9961" x2="-5234.5352" y2="895.9961" gradientTransform="matrix(-0.9895 0.145 0.145 0.9895 -5219.9512 159.3767)">
			<stop  offset="0" style="stop-color:#939598"/>
			<stop  offset="6.520812e-02" style="stop-color:#A0A2A4"/>
			<stop  offset="0.2566" style="stop-color:#C2C4C6"/>
			<stop  offset="0.4293" style="stop-color:#DCDDDE"/>
			<stop  offset="0.5759" style="stop-color:#EBECED"/>
			<stop  offset="0.6788" style="stop-color:#F1F2F2"/>
			<stop  offset="0.7788" style="stop-color:#EDEEEE"/>
			<stop  offset="0.8931" style="stop-color:#E1E2E4"/>
			<stop  offset="1" style="stop-color:#D1D3D4"/>
		</linearGradient>
		<path style="fill:url(#SVGID_00000140716413432832040670000001802731875390518966_);" d="M100.9,364.8L78.1,209.2
			c-0.8-5.5,3-10.6,8.6-11.4l11.2-1.6c0,0,75.2,42.7,101.8,63.8c3,2.4,9.3,6.9,9.9,11.1c0.7,4.7-4.4,10.9-6.8,14.3
			c-19,26.7-76.4,86-76.4,86l-13.9,2C106.9,374.1,101.7,370.3,100.9,364.8z"/>
		
			<linearGradient id="SVGID_00000016047696549309859320000006384956299530822293_" gradientUnits="userSpaceOnUse" x1="-652.4326" y1="985.5479" x2="-652.4326" y2="885.6053" gradientTransform="matrix(0.9895 -0.145 0.145 0.9895 739.1156 -713.7636)">
			<stop  offset="0" style="stop-color:#A7A9AC"/>
			<stop  offset="2.092388e-02" style="stop-color:#ABADB0"/>
			<stop  offset="0.1613" style="stop-color:#C5C7C9"/>
			<stop  offset="0.2981" style="stop-color:#D7D9DA"/>
			<stop  offset="0.4284" style="stop-color:#E2E3E5"/>
			<stop  offset="0.5455" style="stop-color:#E6E7E8"/>
			<stop  offset="0.6595" style="stop-color:#DADCDD"/>
			<stop  offset="0.8758" style="stop-color:#BBBDBF"/>
			<stop  offset="1" style="stop-color:#A7A9AC"/>
		</linearGradient>
		<path style="fill:url(#SVGID_00000016047696549309859320000006384956299530822293_);" d="M220.3,257.4c-5.1,0.7-10.2,6.6-13,9.4
			c-22.6,22.7-107.7,88.9-107.7,88.9l1.5,9.9c0.8,5.5,6,9.4,11.5,8.6l247.9-36.3c5.5-0.8,9.4-6,8.6-11.5l-1.1-7.6
			c0,0-103.9-41-133.3-56.5C231.2,260.5,224.8,256.7,220.3,257.4z"/>
	</g>
</g>
</svg>
