<?xml version="1.0" standalone="no"?>
<!DOCTYPE svg PUBLIC "-//W3C//DTD SVG 20010904//EN"
 "http://www.w3.org/TR/2001/REC-SVG-20010904/DTD/svg10.dtd">
<svg version="1.0" xmlns="http://www.w3.org/2000/svg"
 width="512.000000pt" height="512.000000pt" viewBox="0 0 512.000000 512.000000"
 preserveAspectRatio="xMidYMid meet">
<metadata>
Created by potrace 1.14, written by Peter Selinger 2001-2017
</metadata>
<g transform="translate(0.000000,512.000000) scale(0.100000,-0.100000)"
fill="#000000" stroke="none">
<path d="M2379 5116 c-2 -2 -35 -6 -74 -10 -329 -29 -711 -149 -1000 -316 -48
-27 -89 -50 -91 -50 -2 0 -43 -28 -91 -61 -637 -444 -1029 -1101 -1111 -1859
-9 -86 -8 -459 1 -535 92 -729 440 -1339 1007 -1769 295 -223 657 -388 1010
-459 215 -44 291 -52 525 -52 232 0 294 6 505 46 458 87 902 316 1250 643 226
213 400 445 536 716 142 283 230 585 261 895 10 94 10 411 1 505 -87 873 -614
1642 -1395 2034 -161 81 -372 164 -463 181 -12 2 -37 9 -54 14 -38 12 -214 48
-276 56 -25 3 -61 8 -80 11 -41 6 -455 15 -461 10z m451 -331 c19 -3 78 -13
130 -22 328 -53 671 -205 965 -427 73 -54 291 -264 357 -343 278 -330 465
-775 506 -1203 9 -96 9 -398 0 -470 -16 -124 -21 -149 -40 -235 -11 -49 -22
-100 -24 -112 -11 -57 -92 -269 -143 -378 -215 -451 -588 -827 -1036 -1045
-129 -63 -330 -140 -401 -154 -16 -3 -81 -17 -144 -31 -63 -13 -155 -28 -205
-32 -108 -10 -410 -10 -480 0 -27 4 -70 9 -95 13 -276 36 -641 177 -885 339
-263 176 -489 403 -657 660 -129 196 -253 490 -303 715 -38 173 -50 293 -50
505 0 150 4 219 19 330 38 277 173 632 334 880 236 364 607 678 992 840 36 15
79 33 95 40 69 30 308 96 395 109 19 3 49 8 65 11 17 3 59 8 95 11 36 3 67 8
69 9 6 6 403 -3 441 -10z"/>
<path d="M1307 3404 c-1 -1 -29 -4 -62 -7 -190 -19 -306 -114 -367 -299 -20
-59 -21 -89 -24 -508 -3 -441 1 -507 33 -600 29 -84 104 -175 176 -212 104
-52 92 -51 699 -55 l568 -4 23 23 c22 22 23 29 22 163 -2 157 -6 181 -38 191
-12 4 -236 8 -497 9 -459 1 -477 1 -515 21 -70 36 -69 35 -70 441 0 351 1 362
21 390 43 58 44 58 474 61 217 1 436 2 486 2 138 0 138 0 139 186 1 136 -1
150 -20 172 l-21 25 -513 1 c-282 1 -513 0 -514 0z"/>
<path d="M2786 3395 c-17 -5 -35 -19 -41 -31 -7 -13 -9 -282 -9 -795 1 -426 2
-782 3 -791 1 -10 11 -26 23 -38 20 -18 35 -20 172 -20 83 0 156 4 162 8 37
26 39 42 38 346 l-1 296 357 0 c332 0 359 1 380 18 22 18 23 25 23 172 1 202
15 190 -222 190 -97 1 -257 2 -356 3 l-180 2 0 130 0 130 530 2 c292 1 540 5
553 8 37 9 48 51 46 187 -2 164 -1 155 -29 174 -24 15 -90 17 -722 18 -440 1
-707 -3 -727 -9z"/>
</g>
</svg>
