<svg id="Lager_1" xmlns="http://www.w3.org/2000/svg" viewBox="0 0 410.1 92"><style>.st0{fill:#FF8200;stroke:#646464;stroke-width:2;stroke-miterlimit:10;} .st1{enable-background:new ;} .st2{fill:#FFFFFF;} .st3{fill:#646464;}</style><circle class="st0" cx="46" cy="46" r="45"/><path class="st1 st2" d="M63.7 63.3c0 1.3-.7 1.9-2 1.9H39.4c-7.6 0-11.4-4-11.4-11.9V38.1c0-8.2 3.8-12.3 11.3-12.3h22.4c1.3 0 2 .6 2 1.9v5.1c0 1.3-.7 2-2 2H41.3c-2.7 0-4 1-4 3.1v15.2c0 2.1 1.4 3.1 4.1 3.1h20.3c1.3 0 2 .7 2 2v5.1z"/><g class="st1"><path class="st3" d="M129.9 41c0 1-.5 1.5-1.6 1.5h-18.1v4.6h11.6c1 0 1.6.5 1.6 1.5v3.8c0 .9-.5 1.4-1.6 1.4h-11.6v9.7c0 1-.5 1.6-1.5 1.6h-3.9c-1 0-1.5-.5-1.5-1.6V37.3c0-.9.5-1.4 1.6-1.4h23.4c1 0 1.6.5 1.6 1.4V41zM165.4 55.9c0 6.1-2.8 9.1-8.4 9.1h-12.2c-5.6 0-8.4-3-8.4-9.1V45c0-6.1 2.8-9.1 8.4-9.1H157c5.6 0 8.4 3 8.4 9.1v10.9zm-16.3-25.1c0 1.2-.6 1.8-1.8 1.8h-4.7c-1.1 0-1.7-.6-1.7-1.8v-3.6c0-1.2.6-1.9 1.7-1.9h4.7c1.2 0 1.8.6 1.8 1.9v3.6zm9.4 25.3V44.8c0-1.5-1-2.3-3-2.3h-9.2c-2 0-3 .8-3 2.3V56c0 1.5 1 2.3 3 2.3h9.2c2 0 3-.7 3-2.2zm2.1-25.3c0 1.2-.6 1.8-1.7 1.8h-4.7c-1.2 0-1.8-.6-1.8-1.8v-3.6c0-1.2.6-1.9 1.8-1.9h4.7c1.1 0 1.7.6 1.7 1.9v3.6zM202.8 45c0 5.6-2.5 8.5-7.6 8.7l6.7 9.9c.2.3.2.6.1 1-.1.3-.4.4-.9.4h-4.8c-1.2 0-1.9-.2-2.1-.5L187 53.7h-5.8v9.7c0 1-.5 1.6-1.5 1.6h-3.9c-1 0-1.5-.5-1.5-1.6V37.3c0-.9.5-1.4 1.6-1.4h18.6c5.5 0 8.3 3 8.3 9.1zm-6.9-.2c0-1.5-1-2.3-3-2.3h-11.8v4.6h11.6c2.2 0 3.2-.8 3.2-2.3zM238.2 41c0 1-.5 1.5-1.6 1.5h-18.1v4.6h11.6c1 0 1.6.5 1.6 1.5v3.8c0 .9-.5 1.4-1.6 1.4h-11.6v4.6h18c1 0 1.6.5 1.6 1.5v3.8c0 .9-.5 1.4-1.6 1.4h-23.4c-1 0-1.5-.5-1.5-1.6V37.3c0-.9.5-1.4 1.6-1.4h23.4c1 0 1.6.5 1.6 1.4V41zM270.9 41c0 1-.5 1.5-1.5 1.5h-9.2v20.9c0 1-.5 1.6-1.5 1.6h-3.9c-1 0-1.5-.5-1.5-1.6V42.5h-9.2c-1 0-1.6-.5-1.6-1.5v-3.7c0-1 .5-1.5 1.6-1.5h25.2c1 0 1.5.5 1.5 1.5V41zM304.3 63.5c0 1-.5 1.6-1.6 1.6h-3.8c-1 0-1.5-.5-1.5-1.6v-8.3h-15.2v8.3c0 1-.5 1.6-1.5 1.6h-3.9c-1 0-1.5-.5-1.5-1.6V45c0-6.1 2.8-9.1 8.4-9.1h12.2c5.6 0 8.4 3 8.4 9.1v18.5zm-6.9-15v-3.7c0-1.5-1-2.3-3-2.3h-9.2c-2 0-3 .8-3 2.3v3.7h15.2zM342.1 55.9c0 6.1-2.8 9.1-8.4 9.1h-12.2c-5.6 0-8.4-2.9-8.4-8.8V45c0-6.1 2.8-9.1 8.4-9.1h16.6c1 0 1.5.5 1.5 1.4V41c0 1-.5 1.5-1.5 1.5H323c-2 0-3 .8-3 2.3V56c0 1.5 1 2.3 3 2.3h9.1c2 0 3-.8 3-2.3v-2.3H329c-1 0-1.6-.5-1.6-1.5v-3.8c0-.9.5-1.4 1.6-1.4h11.5c1 0 1.5.5 1.5 1.5v7.4zM377.4 41c0 1-.5 1.5-1.6 1.5h-18.1v4.6h11.6c1 0 1.6.5 1.6 1.5v3.8c0 .9-.5 1.4-1.6 1.4h-11.6v4.6h18c1 0 1.6.5 1.6 1.5v3.8c0 .9-.5 1.4-1.6 1.4h-23.4c-1 0-1.5-.5-1.5-1.6V37.3c0-.9.5-1.4 1.6-1.4h23.4c1 0 1.6.5 1.6 1.4V41zM410.1 41c0 1-.5 1.5-1.5 1.5h-9.2v20.9c0 1-.5 1.6-1.5 1.6H394c-1 0-1.5-.5-1.5-1.6V42.5h-9.2c-1 0-1.6-.5-1.6-1.5v-3.7c0-1 .5-1.5 1.6-1.5h25.2c1 0 1.5.5 1.5 1.5V41z"/></g></svg>